<mxfile host="Electron" agent="Mozilla/5.0 (Windows NT 10.0; Win64; x64) AppleWebKit/537.36 (KHTML, like Gecko) draw.io/28.2.8 Chrome/140.0.7339.240 Electron/38.4.0 Safari/537.36" version="28.2.8" pages="11">
  <diagram name="overview" id="aE0DW7iNFTxmuB1C0EMy">
    <mxGraphModel dx="1426" dy="841" grid="1" gridSize="10" guides="1" tooltips="1" connect="1" arrows="1" fold="1" page="1" pageScale="1" pageWidth="827" pageHeight="1169" math="0" shadow="0">
      <root>
        <mxCell id="lB__2Sk0XwVK0TaealUC-0" />
        <mxCell id="lB__2Sk0XwVK0TaealUC-1" parent="lB__2Sk0XwVK0TaealUC-0" />
        <mxCell id="mGlCrqEmlR-2vInZvUBy-24" value="" style="rounded=1;whiteSpace=wrap;html=1;fillColor=#f5f5f5;fontColor=#333333;strokeColor=#666666;" parent="lB__2Sk0XwVK0TaealUC-1" vertex="1">
          <mxGeometry x="240" y="120" width="120" height="400" as="geometry" />
        </mxCell>
        <mxCell id="lB__2Sk0XwVK0TaealUC-10" value="Client" style="verticalLabelPosition=bottom;html=1;verticalAlign=top;align=center;strokeColor=none;fillColor=#00BEF2;shape=mxgraph.azure.user;fontStyle=0;labelBackgroundColor=default;" parent="lB__2Sk0XwVK0TaealUC-1" vertex="1">
          <mxGeometry x="60" y="270" width="47.5" height="50" as="geometry" />
        </mxCell>
        <mxCell id="lB__2Sk0XwVK0TaealUC-14" value="Unprotected API" style="shape=image;verticalLabelPosition=bottom;labelBackgroundColor=none;verticalAlign=top;aspect=fixed;imageAspect=0;image=data:image/svg+xml,PHN2ZyB4bWxucz0iaHR0cDovL3d3dy53My5vcmcvMjAwMC9zdmciIHZpZXdCb3g9IjAgMCA1MCA1MCI+JiN4YTsgICAgPHBhdGggZmlsbD0iIzU3YTMwMCIgZD0iTTAgMjAuODRoMTkuNTV2OC4zMkgweiIvPiYjeGE7ICAgIDxwYXRoIGZpbGw9IiM1OWI0ZDkiIGQ9Ik00MS42OCAyMC44NGgxMC4yNnY4LjMySDQxLjY4eiIvPiYjeGE7ICAgIDxjaXJjbGUgZmlsbD0iIzU3YTMwMCIgcj0iOS40NiIgY3k9IjI1IiBjeD0iMjAuMTIiLz4mI3hhOyAgICA8cGF0aCBmaWxsPSIjNTliNGQ5IiBkPSJNMjAuMTIuNDh2MTAuOTZhMSAxIDAgMCAxIDAgMjcuMTR2MTAuOTZhMSAxIDAgMCAwIDAtNDkuMDVaIi8+JiN4YTs8L3N2Zz4=;imageBackground=none;fontStyle=1" parent="lB__2Sk0XwVK0TaealUC-1" vertex="1">
          <mxGeometry x="275" y="140" width="50" height="50" as="geometry" />
        </mxCell>
        <mxCell id="mGlCrqEmlR-2vInZvUBy-0" value="" style="rounded=1;whiteSpace=wrap;html=1;dashed=1;" parent="lB__2Sk0XwVK0TaealUC-1" vertex="1">
          <mxGeometry x="440" y="360" width="200" height="260" as="geometry" />
        </mxCell>
        <mxCell id="mGlCrqEmlR-2vInZvUBy-1" value="Microsoft Entra ID" style="image;aspect=fixed;html=1;points=[];align=center;fontSize=12;image=img/lib/azure2/other/Entra_Identity.svg;" parent="lB__2Sk0XwVK0TaealUC-1" vertex="1">
          <mxGeometry x="506" y="320" width="68" height="60.440000000000005" as="geometry" />
        </mxCell>
        <mxCell id="mGlCrqEmlR-2vInZvUBy-2" value="&lt;div&gt;&lt;span style=&quot;background-color: transparent; color: light-dark(rgb(0, 0, 0), rgb(255, 255, 255));&quot;&gt;&amp;nbsp; &amp;nbsp; &amp;nbsp; &amp;nbsp;App roles:&lt;/span&gt;&lt;/div&gt;&lt;div&gt;&lt;ul&gt;&lt;li&gt;Sample.Read&lt;/li&gt;&lt;li&gt;Sample.Write&lt;/li&gt;&lt;li&gt;Sample.Delete&lt;/li&gt;&lt;/ul&gt;&lt;/div&gt;" style="rounded=1;whiteSpace=wrap;html=1;fillColor=#dae8fc;strokeColor=#6c8ebf;align=left;verticalAlign=bottom;" parent="lB__2Sk0XwVK0TaealUC-1" vertex="1">
          <mxGeometry x="460" y="440" width="160" height="160" as="geometry" />
        </mxCell>
        <mxCell id="mGlCrqEmlR-2vInZvUBy-3" value="API Management&lt;div&gt;&lt;span style=&quot;font-weight: normal;&quot;&gt;(app registration)&lt;/span&gt;&lt;/div&gt;" style="image;sketch=0;aspect=fixed;html=1;points=[];align=center;fontSize=12;image=img/lib/mscae/App_Registrations.svg;fontStyle=1;labelBackgroundColor=none;" parent="lB__2Sk0XwVK0TaealUC-1" vertex="1">
          <mxGeometry x="515" y="415" width="50" height="50" as="geometry" />
        </mxCell>
        <mxCell id="mGlCrqEmlR-2vInZvUBy-9" value="" style="shape=curlyBracket;whiteSpace=wrap;html=1;rounded=1;labelPosition=left;verticalLabelPosition=middle;align=right;verticalAlign=middle;" parent="lB__2Sk0XwVK0TaealUC-1" vertex="1">
          <mxGeometry x="470" y="545" width="14.5" height="25" as="geometry" />
        </mxCell>
        <mxCell id="mGlCrqEmlR-2vInZvUBy-11" value="" style="shape=curlyBracket;whiteSpace=wrap;html=1;rounded=1;flipH=1;labelPosition=right;verticalLabelPosition=middle;align=left;verticalAlign=middle;" parent="lB__2Sk0XwVK0TaealUC-1" vertex="1">
          <mxGeometry x="580" y="542" width="15.5" height="44" as="geometry" />
        </mxCell>
        <mxCell id="mGlCrqEmlR-2vInZvUBy-14" value="requires" style="edgeStyle=orthogonalEdgeStyle;rounded=0;orthogonalLoop=1;jettySize=auto;html=1;entryX=0.1;entryY=0.5;entryDx=0;entryDy=0;entryPerimeter=0;dashed=1;" parent="lB__2Sk0XwVK0TaealUC-1" source="lB__2Sk0XwVK0TaealUC-6" target="mGlCrqEmlR-2vInZvUBy-11" edge="1">
          <mxGeometry x="-0.7168" y="15" relative="1" as="geometry">
            <Array as="points">
              <mxPoint x="660" y="165" />
              <mxPoint x="660" y="564" />
            </Array>
            <mxPoint as="offset" />
          </mxGeometry>
        </mxCell>
        <mxCell id="mGlCrqEmlR-2vInZvUBy-15" value="Azure Function" style="image;aspect=fixed;html=1;points=[];align=center;fontSize=12;image=img/lib/azure2/compute/Function_Apps.svg;fontStyle=1;labelBackgroundColor=none;" parent="lB__2Sk0XwVK0TaealUC-1" vertex="1">
          <mxGeometry x="266" y="270" width="68" height="60" as="geometry" />
        </mxCell>
        <mxCell id="mGlCrqEmlR-2vInZvUBy-16" value="Logic App&lt;div&gt;Workflow&lt;/div&gt;" style="image;aspect=fixed;html=1;points=[];align=center;fontSize=12;image=img/lib/azure2/internet_of_things/Logic_Apps.svg;fontStyle=1;labelBackgroundColor=none;" parent="lB__2Sk0XwVK0TaealUC-1" vertex="1">
          <mxGeometry x="270" y="400" width="60" height="60" as="geometry" />
        </mxCell>
        <mxCell id="mGlCrqEmlR-2vInZvUBy-18" value="&lt;div&gt;assigned roles&lt;/div&gt;&lt;div&gt;through the&lt;/div&gt;&lt;div&gt;managed identity&lt;/div&gt;" style="rounded=0;orthogonalLoop=1;jettySize=auto;html=1;dashed=1;labelBackgroundColor=default;entryX=0.1;entryY=0.5;entryDx=0;entryDy=0;entryPerimeter=0;exitX=0.5;exitY=1;exitDx=0;exitDy=0;edgeStyle=orthogonalEdgeStyle;" parent="lB__2Sk0XwVK0TaealUC-1" source="mGlCrqEmlR-2vInZvUBy-24" target="mGlCrqEmlR-2vInZvUBy-9" edge="1">
          <mxGeometry x="-0.4102" relative="1" as="geometry">
            <mxPoint as="offset" />
            <mxPoint x="320" y="710" as="sourcePoint" />
            <mxPoint x="521" y="689" as="targetPoint" />
            <Array as="points">
              <mxPoint x="300" y="558" />
              <mxPoint x="410" y="558" />
            </Array>
          </mxGeometry>
        </mxCell>
        <mxCell id="mGlCrqEmlR-2vInZvUBy-22" value="1. calls resource&lt;div&gt;without authentication&lt;/div&gt;" style="edgeStyle=orthogonalEdgeStyle;rounded=0;orthogonalLoop=1;jettySize=auto;html=1;" parent="lB__2Sk0XwVK0TaealUC-1" source="lB__2Sk0XwVK0TaealUC-10" target="mGlCrqEmlR-2vInZvUBy-24" edge="1">
          <mxGeometry x="-0.0566" y="20" relative="1" as="geometry">
            <mxPoint as="offset" />
            <mxPoint x="120" y="160" as="sourcePoint" />
            <mxPoint x="290" y="175" as="targetPoint" />
            <Array as="points">
              <mxPoint x="130" y="300" />
              <mxPoint x="130" y="300" />
            </Array>
          </mxGeometry>
        </mxCell>
        <mxCell id="lB__2Sk0XwVK0TaealUC-4" value="" style="rounded=1;whiteSpace=wrap;html=1;dashed=1;fillColor=none;" parent="lB__2Sk0XwVK0TaealUC-1" vertex="1">
          <mxGeometry x="230" y="60" width="330" height="190" as="geometry" />
        </mxCell>
        <mxCell id="lB__2Sk0XwVK0TaealUC-6" value="Protected API" style="shape=image;verticalLabelPosition=bottom;labelBackgroundColor=default;verticalAlign=top;aspect=fixed;imageAspect=0;image=data:image/svg+xml,PHN2ZyB4bWxucz0iaHR0cDovL3d3dy53My5vcmcvMjAwMC9zdmciIHZpZXdCb3g9IjAgMCA1MCA1MCI+JiN4YTsgICAgPHBhdGggZmlsbD0iIzU3YTMwMCIgZD0iTTAgMjAuODRoMTkuNTV2OC4zMkgweiIvPiYjeGE7ICAgIDxwYXRoIGZpbGw9IiM1OWI0ZDkiIGQ9Ik00MS42OCAyMC44NGgxMC4yNnY4LjMySDQxLjY4eiIvPiYjeGE7ICAgIDxjaXJjbGUgZmlsbD0iIzU3YTMwMCIgcj0iOS40NiIgY3k9IjI1IiBjeD0iMjAuMTIiLz4mI3hhOyAgICA8cGF0aCBmaWxsPSIjNTliNGQ5IiBkPSJNMjAuMTIuNDh2MTAuOTZhMSAxIDAgMCAxIDAgMjcuMTR2MTAuOTZhMSAxIDAgMCAwIDAtNDkuMDVaIi8+JiN4YTs8L3N2Zz4=;imageBackground=none;fontStyle=1" parent="lB__2Sk0XwVK0TaealUC-1" vertex="1">
          <mxGeometry x="460" y="140" width="50" height="50" as="geometry" />
        </mxCell>
        <mxCell id="mGlCrqEmlR-2vInZvUBy-25" value="3. calls API&lt;div&gt;with Bearer token&lt;/div&gt;" style="rounded=0;orthogonalLoop=1;jettySize=auto;html=1;" parent="lB__2Sk0XwVK0TaealUC-1" source="mGlCrqEmlR-2vInZvUBy-24" target="lB__2Sk0XwVK0TaealUC-6" edge="1">
          <mxGeometry x="-0.0213" y="-2" relative="1" as="geometry">
            <mxPoint x="510" y="290" as="targetPoint" />
            <mxPoint as="offset" />
          </mxGeometry>
        </mxCell>
        <mxCell id="lB__2Sk0XwVK0TaealUC-7" value="2. retrieves&amp;nbsp;&lt;div&gt;token using&lt;/div&gt;&lt;div&gt;managed&amp;nbsp;&lt;/div&gt;&lt;div&gt;identity for&lt;/div&gt;" style="rounded=0;orthogonalLoop=1;jettySize=auto;html=1;exitX=1;exitY=1;exitDx=0;exitDy=0;" parent="lB__2Sk0XwVK0TaealUC-1" target="mGlCrqEmlR-2vInZvUBy-2" edge="1">
          <mxGeometry x="-0.3002" y="3" relative="1" as="geometry">
            <mxPoint x="360" y="320" as="sourcePoint" />
            <mxPoint as="offset" />
            <mxPoint x="500.37735849056594" y="560" as="targetPoint" />
          </mxGeometry>
        </mxCell>
        <mxCell id="lB__2Sk0XwVK0TaealUC-5" value="API Management" style="image;aspect=fixed;html=1;points=[];align=center;fontSize=12;image=img/lib/azure2/app_services/API_Management_Services.svg;imageBackground=default;" parent="lB__2Sk0XwVK0TaealUC-1" vertex="1">
          <mxGeometry x="362.5" y="20" width="65" height="60" as="geometry" />
        </mxCell>
      </root>
    </mxGraphModel>
  </diagram>
  <diagram name="apim-to-apim" id="T999v1JWD-zuzra6A1x7">
    <mxGraphModel dx="1426" dy="841" grid="1" gridSize="10" guides="1" tooltips="1" connect="1" arrows="1" fold="1" page="1" pageScale="1" pageWidth="827" pageHeight="1169" math="0" shadow="0">
      <root>
        <mxCell id="MTBBnn2Q58c1l2iHvtrN-0" />
        <mxCell id="MTBBnn2Q58c1l2iHvtrN-1" parent="MTBBnn2Q58c1l2iHvtrN-0" />
        <mxCell id="0RmOqdITF_pL-Moo39bk-0" value="Unprotected API&lt;div&gt;&lt;i&gt;(API Management)&lt;/i&gt;&lt;/div&gt;" style="shape=umlLifeline;perimeter=lifelinePerimeter;whiteSpace=wrap;html=1;container=1;dropTarget=0;collapsible=0;recursiveResize=0;outlineConnect=0;portConstraint=eastwest;newEdgeStyle={&quot;curved&quot;:0,&quot;rounded&quot;:0};" parent="MTBBnn2Q58c1l2iHvtrN-1" vertex="1">
          <mxGeometry x="160" y="80" width="110" height="510" as="geometry" />
        </mxCell>
        <mxCell id="0RmOqdITF_pL-Moo39bk-1" value="" style="html=1;points=[[0,0,0,0,5],[0,1,0,0,-5],[1,0,0,0,5],[1,1,0,0,-5]];perimeter=orthogonalPerimeter;outlineConnect=0;targetShapes=umlLifeline;portConstraint=eastwest;newEdgeStyle={&quot;curved&quot;:0,&quot;rounded&quot;:0};" parent="0RmOqdITF_pL-Moo39bk-0" vertex="1">
          <mxGeometry x="50" y="80" width="10" height="200" as="geometry" />
        </mxCell>
        <mxCell id="dKnLejZz4xkfdzCcyVaS-0" value="" style="html=1;points=[[0,0,0,0,5],[0,1,0,0,-5],[1,0,0,0,5],[1,1,0,0,-5]];perimeter=orthogonalPerimeter;outlineConnect=0;targetShapes=umlLifeline;portConstraint=eastwest;newEdgeStyle={&quot;curved&quot;:0,&quot;rounded&quot;:0};" parent="0RmOqdITF_pL-Moo39bk-0" vertex="1">
          <mxGeometry x="50" y="310" width="10" height="80" as="geometry" />
        </mxCell>
        <mxCell id="dKnLejZz4xkfdzCcyVaS-7" value="" style="html=1;points=[[0,0,0,0,5],[0,1,0,0,-5],[1,0,0,0,5],[1,1,0,0,-5]];perimeter=orthogonalPerimeter;outlineConnect=0;targetShapes=umlLifeline;portConstraint=eastwest;newEdgeStyle={&quot;curved&quot;:0,&quot;rounded&quot;:0};" parent="0RmOqdITF_pL-Moo39bk-0" vertex="1">
          <mxGeometry x="50" y="415" width="10" height="80" as="geometry" />
        </mxCell>
        <mxCell id="MTBBnn2Q58c1l2iHvtrN-2" value="" style="shape=umlLifeline;perimeter=lifelinePerimeter;whiteSpace=wrap;html=1;container=1;dropTarget=0;collapsible=0;recursiveResize=0;outlineConnect=0;portConstraint=eastwest;newEdgeStyle={&quot;curved&quot;:0,&quot;rounded&quot;:0};participant=umlActor;" parent="MTBBnn2Q58c1l2iHvtrN-1" vertex="1">
          <mxGeometry x="90" y="80" width="20" height="510" as="geometry" />
        </mxCell>
        <mxCell id="MTBBnn2Q58c1l2iHvtrN-3" value="Protected API&lt;div&gt;&lt;i&gt;(API Management)&lt;/i&gt;&lt;/div&gt;" style="shape=umlLifeline;perimeter=lifelinePerimeter;whiteSpace=wrap;html=1;container=1;dropTarget=0;collapsible=0;recursiveResize=0;outlineConnect=0;portConstraint=eastwest;newEdgeStyle={&quot;curved&quot;:0,&quot;rounded&quot;:0};" parent="MTBBnn2Q58c1l2iHvtrN-1" vertex="1">
          <mxGeometry x="300" y="80" width="110" height="510" as="geometry" />
        </mxCell>
        <mxCell id="0RmOqdITF_pL-Moo39bk-4" value="" style="html=1;points=[[0,0,0,0,5],[0,1,0,0,-5],[1,0,0,0,5],[1,1,0,0,-5]];perimeter=orthogonalPerimeter;outlineConnect=0;targetShapes=umlLifeline;portConstraint=eastwest;newEdgeStyle={&quot;curved&quot;:0,&quot;rounded&quot;:0};" parent="MTBBnn2Q58c1l2iHvtrN-3" vertex="1">
          <mxGeometry x="50" y="220" width="10" height="40" as="geometry" />
        </mxCell>
        <mxCell id="dKnLejZz4xkfdzCcyVaS-3" value="" style="html=1;points=[[0,0,0,0,5],[0,1,0,0,-5],[1,0,0,0,5],[1,1,0,0,-5]];perimeter=orthogonalPerimeter;outlineConnect=0;targetShapes=umlLifeline;portConstraint=eastwest;newEdgeStyle={&quot;curved&quot;:0,&quot;rounded&quot;:0};" parent="MTBBnn2Q58c1l2iHvtrN-3" vertex="1">
          <mxGeometry x="50" y="320" width="10" height="50" as="geometry" />
        </mxCell>
        <mxCell id="dKnLejZz4xkfdzCcyVaS-6" value="" style="html=1;points=[[0,0,0,0,5],[0,1,0,0,-5],[1,0,0,0,5],[1,1,0,0,-5]];perimeter=orthogonalPerimeter;outlineConnect=0;targetShapes=umlLifeline;portConstraint=eastwest;newEdgeStyle={&quot;curved&quot;:0,&quot;rounded&quot;:0};" parent="MTBBnn2Q58c1l2iHvtrN-3" vertex="1">
          <mxGeometry x="50" y="430" width="10" height="50" as="geometry" />
        </mxCell>
        <mxCell id="MTBBnn2Q58c1l2iHvtrN-7" value="APIM app registration&lt;div&gt;&lt;i&gt;(Entra ID)&lt;/i&gt;&lt;/div&gt;" style="shape=umlLifeline;perimeter=lifelinePerimeter;whiteSpace=wrap;html=1;container=1;dropTarget=0;collapsible=0;recursiveResize=0;outlineConnect=0;portConstraint=eastwest;newEdgeStyle={&quot;curved&quot;:0,&quot;rounded&quot;:0};" parent="MTBBnn2Q58c1l2iHvtrN-1" vertex="1">
          <mxGeometry x="430" y="80" width="127" height="510" as="geometry" />
        </mxCell>
        <mxCell id="0RmOqdITF_pL-Moo39bk-8" value="" style="html=1;points=[[0,0,0,0,5],[0,1,0,0,-5],[1,0,0,0,5],[1,1,0,0,-5]];perimeter=orthogonalPerimeter;outlineConnect=0;targetShapes=umlLifeline;portConstraint=eastwest;newEdgeStyle={&quot;curved&quot;:0,&quot;rounded&quot;:0};" parent="MTBBnn2Q58c1l2iHvtrN-7" vertex="1">
          <mxGeometry x="58.5" y="100" width="10" height="40" as="geometry" />
        </mxCell>
        <mxCell id="0RmOqdITF_pL-Moo39bk-2" value="GET" style="html=1;verticalAlign=bottom;endArrow=block;curved=0;rounded=0;entryX=0;entryY=0;entryDx=0;entryDy=5;" parent="MTBBnn2Q58c1l2iHvtrN-1" source="MTBBnn2Q58c1l2iHvtrN-2" target="0RmOqdITF_pL-Moo39bk-1" edge="1">
          <mxGeometry x="-0.0041" relative="1" as="geometry">
            <mxPoint x="140" y="165" as="sourcePoint" />
            <mxPoint as="offset" />
          </mxGeometry>
        </mxCell>
        <mxCell id="0RmOqdITF_pL-Moo39bk-3" value="200 OK" style="html=1;verticalAlign=bottom;endArrow=open;dashed=1;endSize=8;curved=0;rounded=0;exitX=0;exitY=1;exitDx=0;exitDy=-5;" parent="MTBBnn2Q58c1l2iHvtrN-1" source="0RmOqdITF_pL-Moo39bk-1" target="MTBBnn2Q58c1l2iHvtrN-2" edge="1">
          <mxGeometry relative="1" as="geometry">
            <mxPoint x="140" y="235" as="targetPoint" />
          </mxGeometry>
        </mxCell>
        <mxCell id="0RmOqdITF_pL-Moo39bk-6" value="200 OK" style="html=1;verticalAlign=bottom;endArrow=open;dashed=1;endSize=8;curved=0;rounded=0;exitX=0;exitY=1;exitDx=0;exitDy=-5;" parent="MTBBnn2Q58c1l2iHvtrN-1" source="0RmOqdITF_pL-Moo39bk-4" target="0RmOqdITF_pL-Moo39bk-1" edge="1">
          <mxGeometry relative="1" as="geometry">
            <mxPoint x="260" y="345" as="targetPoint" />
          </mxGeometry>
        </mxCell>
        <mxCell id="0RmOqdITF_pL-Moo39bk-5" value="GET (token)" style="html=1;verticalAlign=bottom;endArrow=block;curved=0;rounded=0;entryX=0;entryY=0;entryDx=0;entryDy=5;" parent="MTBBnn2Q58c1l2iHvtrN-1" source="0RmOqdITF_pL-Moo39bk-1" target="0RmOqdITF_pL-Moo39bk-4" edge="1">
          <mxGeometry relative="1" as="geometry">
            <mxPoint x="260" y="275" as="sourcePoint" />
          </mxGeometry>
        </mxCell>
        <mxCell id="0RmOqdITF_pL-Moo39bk-9" value="Get token for managed identity" style="html=1;verticalAlign=bottom;endArrow=block;curved=0;rounded=0;entryX=0;entryY=0;entryDx=0;entryDy=5;" parent="MTBBnn2Q58c1l2iHvtrN-1" source="0RmOqdITF_pL-Moo39bk-1" target="0RmOqdITF_pL-Moo39bk-8" edge="1">
          <mxGeometry relative="1" as="geometry">
            <mxPoint x="390" y="205" as="sourcePoint" />
          </mxGeometry>
        </mxCell>
        <mxCell id="0RmOqdITF_pL-Moo39bk-10" value="access token" style="html=1;verticalAlign=bottom;endArrow=open;dashed=1;endSize=8;curved=0;rounded=0;exitX=0;exitY=1;exitDx=0;exitDy=-5;" parent="MTBBnn2Q58c1l2iHvtrN-1" source="0RmOqdITF_pL-Moo39bk-8" target="0RmOqdITF_pL-Moo39bk-1" edge="1">
          <mxGeometry relative="1" as="geometry">
            <mxPoint x="390" y="275" as="targetPoint" />
          </mxGeometry>
        </mxCell>
        <mxCell id="DG36szIiAkqgeyOre-zb-0" value="" style="html=1;points=[[0,0,0,0,5],[0,1,0,0,-5],[1,0,0,0,5],[1,1,0,0,-5]];perimeter=orthogonalPerimeter;outlineConnect=0;targetShapes=umlLifeline;portConstraint=eastwest;newEdgeStyle={&quot;curved&quot;:0,&quot;rounded&quot;:0};" parent="MTBBnn2Q58c1l2iHvtrN-1" vertex="1">
          <mxGeometry x="215" y="250" width="10" height="30" as="geometry" />
        </mxCell>
        <mxCell id="DG36szIiAkqgeyOre-zb-1" value="cache token" style="html=1;align=left;spacingLeft=2;endArrow=block;rounded=0;edgeStyle=orthogonalEdgeStyle;curved=0;rounded=0;" parent="MTBBnn2Q58c1l2iHvtrN-1" target="DG36szIiAkqgeyOre-zb-0" edge="1">
          <mxGeometry relative="1" as="geometry">
            <mxPoint x="220" y="240" as="sourcePoint" />
            <Array as="points">
              <mxPoint x="220" y="240" />
              <mxPoint x="250" y="240" />
              <mxPoint x="250" y="260" />
            </Array>
          </mxGeometry>
        </mxCell>
        <mxCell id="dKnLejZz4xkfdzCcyVaS-1" value="POST" style="html=1;verticalAlign=bottom;endArrow=block;curved=0;rounded=0;entryX=0;entryY=0;entryDx=0;entryDy=5;" parent="MTBBnn2Q58c1l2iHvtrN-1" source="MTBBnn2Q58c1l2iHvtrN-2" target="dKnLejZz4xkfdzCcyVaS-0" edge="1">
          <mxGeometry relative="1" as="geometry">
            <mxPoint x="140" y="395" as="sourcePoint" />
          </mxGeometry>
        </mxCell>
        <mxCell id="dKnLejZz4xkfdzCcyVaS-2" value="200 OK" style="html=1;verticalAlign=bottom;endArrow=open;dashed=1;endSize=8;curved=0;rounded=0;exitX=0;exitY=1;exitDx=0;exitDy=-5;" parent="MTBBnn2Q58c1l2iHvtrN-1" source="dKnLejZz4xkfdzCcyVaS-0" target="MTBBnn2Q58c1l2iHvtrN-2" edge="1">
          <mxGeometry relative="1" as="geometry">
            <mxPoint x="140" y="465" as="targetPoint" />
          </mxGeometry>
        </mxCell>
        <mxCell id="dKnLejZz4xkfdzCcyVaS-5" value="200 OK" style="html=1;verticalAlign=bottom;endArrow=open;dashed=1;endSize=8;curved=0;rounded=0;exitX=0;exitY=1;exitDx=0;exitDy=-5;" parent="MTBBnn2Q58c1l2iHvtrN-1" source="dKnLejZz4xkfdzCcyVaS-3" target="dKnLejZz4xkfdzCcyVaS-0" edge="1">
          <mxGeometry relative="1" as="geometry">
            <mxPoint x="267.5" y="485" as="targetPoint" />
          </mxGeometry>
        </mxCell>
        <mxCell id="dKnLejZz4xkfdzCcyVaS-4" value="POST (cached token)" style="html=1;verticalAlign=bottom;endArrow=block;curved=0;rounded=0;entryX=0;entryY=0;entryDx=0;entryDy=5;" parent="MTBBnn2Q58c1l2iHvtrN-1" source="dKnLejZz4xkfdzCcyVaS-0" target="dKnLejZz4xkfdzCcyVaS-3" edge="1">
          <mxGeometry x="-0.0022" relative="1" as="geometry">
            <mxPoint x="267.5" y="415" as="sourcePoint" />
            <mxPoint as="offset" />
          </mxGeometry>
        </mxCell>
        <mxCell id="dKnLejZz4xkfdzCcyVaS-10" value="401 Unauthorized" style="html=1;verticalAlign=bottom;endArrow=open;dashed=1;endSize=8;curved=0;rounded=0;exitX=0;exitY=1;exitDx=0;exitDy=-5;" parent="MTBBnn2Q58c1l2iHvtrN-1" source="dKnLejZz4xkfdzCcyVaS-6" target="dKnLejZz4xkfdzCcyVaS-7" edge="1">
          <mxGeometry relative="1" as="geometry">
            <mxPoint x="280" y="595" as="targetPoint" />
          </mxGeometry>
        </mxCell>
        <mxCell id="dKnLejZz4xkfdzCcyVaS-11" value="DELETE (cached token)" style="html=1;verticalAlign=bottom;endArrow=block;curved=0;rounded=0;entryX=0;entryY=0;entryDx=0;entryDy=5;" parent="MTBBnn2Q58c1l2iHvtrN-1" source="dKnLejZz4xkfdzCcyVaS-7" target="dKnLejZz4xkfdzCcyVaS-6" edge="1">
          <mxGeometry x="-0.0022" relative="1" as="geometry">
            <mxPoint x="280" y="525" as="sourcePoint" />
            <mxPoint as="offset" />
          </mxGeometry>
        </mxCell>
        <mxCell id="dKnLejZz4xkfdzCcyVaS-8" value="DELETE" style="html=1;verticalAlign=bottom;endArrow=block;curved=0;rounded=0;entryX=0;entryY=0;entryDx=0;entryDy=5;" parent="MTBBnn2Q58c1l2iHvtrN-1" source="MTBBnn2Q58c1l2iHvtrN-2" target="dKnLejZz4xkfdzCcyVaS-7" edge="1">
          <mxGeometry relative="1" as="geometry">
            <mxPoint x="122.5" y="505" as="sourcePoint" />
          </mxGeometry>
        </mxCell>
        <mxCell id="dKnLejZz4xkfdzCcyVaS-9" value="401 Unauthorized" style="html=1;verticalAlign=bottom;endArrow=open;dashed=1;endSize=8;curved=0;rounded=0;exitX=0;exitY=1;exitDx=0;exitDy=-5;" parent="MTBBnn2Q58c1l2iHvtrN-1" source="dKnLejZz4xkfdzCcyVaS-7" target="MTBBnn2Q58c1l2iHvtrN-2" edge="1">
          <mxGeometry relative="1" as="geometry">
            <mxPoint x="122.5" y="575" as="targetPoint" />
          </mxGeometry>
        </mxCell>
      </root>
    </mxGraphModel>
  </diagram>
  <diagram name="function-to-apim" id="Yn0Nhuerw2zCI75o2Mhz">
    <mxGraphModel dx="1426" dy="841" grid="1" gridSize="10" guides="1" tooltips="1" connect="1" arrows="1" fold="1" page="1" pageScale="1" pageWidth="827" pageHeight="1169" math="0" shadow="0">
      <root>
        <mxCell id="aaZtIB32hJEBYhalZou3-0" />
        <mxCell id="aaZtIB32hJEBYhalZou3-1" parent="aaZtIB32hJEBYhalZou3-0" />
        <mxCell id="aaZtIB32hJEBYhalZou3-2" value="Azure Function" style="shape=umlLifeline;perimeter=lifelinePerimeter;whiteSpace=wrap;html=1;container=1;dropTarget=0;collapsible=0;recursiveResize=0;outlineConnect=0;portConstraint=eastwest;newEdgeStyle={&quot;curved&quot;:0,&quot;rounded&quot;:0};" vertex="1" parent="aaZtIB32hJEBYhalZou3-1">
          <mxGeometry x="160" y="80" width="110" height="510" as="geometry" />
        </mxCell>
        <mxCell id="aaZtIB32hJEBYhalZou3-3" value="" style="html=1;points=[[0,0,0,0,5],[0,1,0,0,-5],[1,0,0,0,5],[1,1,0,0,-5]];perimeter=orthogonalPerimeter;outlineConnect=0;targetShapes=umlLifeline;portConstraint=eastwest;newEdgeStyle={&quot;curved&quot;:0,&quot;rounded&quot;:0};" vertex="1" parent="aaZtIB32hJEBYhalZou3-2">
          <mxGeometry x="50" y="80" width="10" height="200" as="geometry" />
        </mxCell>
        <mxCell id="aaZtIB32hJEBYhalZou3-4" value="" style="html=1;points=[[0,0,0,0,5],[0,1,0,0,-5],[1,0,0,0,5],[1,1,0,0,-5]];perimeter=orthogonalPerimeter;outlineConnect=0;targetShapes=umlLifeline;portConstraint=eastwest;newEdgeStyle={&quot;curved&quot;:0,&quot;rounded&quot;:0};" vertex="1" parent="aaZtIB32hJEBYhalZou3-2">
          <mxGeometry x="50" y="310" width="10" height="80" as="geometry" />
        </mxCell>
        <mxCell id="aaZtIB32hJEBYhalZou3-5" value="" style="html=1;points=[[0,0,0,0,5],[0,1,0,0,-5],[1,0,0,0,5],[1,1,0,0,-5]];perimeter=orthogonalPerimeter;outlineConnect=0;targetShapes=umlLifeline;portConstraint=eastwest;newEdgeStyle={&quot;curved&quot;:0,&quot;rounded&quot;:0};" vertex="1" parent="aaZtIB32hJEBYhalZou3-2">
          <mxGeometry x="50" y="415" width="10" height="80" as="geometry" />
        </mxCell>
        <mxCell id="aaZtIB32hJEBYhalZou3-6" value="" style="shape=umlLifeline;perimeter=lifelinePerimeter;whiteSpace=wrap;html=1;container=1;dropTarget=0;collapsible=0;recursiveResize=0;outlineConnect=0;portConstraint=eastwest;newEdgeStyle={&quot;curved&quot;:0,&quot;rounded&quot;:0};participant=umlActor;" vertex="1" parent="aaZtIB32hJEBYhalZou3-1">
          <mxGeometry x="90" y="80" width="20" height="510" as="geometry" />
        </mxCell>
        <mxCell id="aaZtIB32hJEBYhalZou3-7" value="Protected API&lt;div&gt;&lt;i&gt;(API Management)&lt;/i&gt;&lt;/div&gt;" style="shape=umlLifeline;perimeter=lifelinePerimeter;whiteSpace=wrap;html=1;container=1;dropTarget=0;collapsible=0;recursiveResize=0;outlineConnect=0;portConstraint=eastwest;newEdgeStyle={&quot;curved&quot;:0,&quot;rounded&quot;:0};" vertex="1" parent="aaZtIB32hJEBYhalZou3-1">
          <mxGeometry x="300" y="80" width="110" height="510" as="geometry" />
        </mxCell>
        <mxCell id="aaZtIB32hJEBYhalZou3-8" value="" style="html=1;points=[[0,0,0,0,5],[0,1,0,0,-5],[1,0,0,0,5],[1,1,0,0,-5]];perimeter=orthogonalPerimeter;outlineConnect=0;targetShapes=umlLifeline;portConstraint=eastwest;newEdgeStyle={&quot;curved&quot;:0,&quot;rounded&quot;:0};" vertex="1" parent="aaZtIB32hJEBYhalZou3-7">
          <mxGeometry x="50" y="220" width="10" height="40" as="geometry" />
        </mxCell>
        <mxCell id="aaZtIB32hJEBYhalZou3-9" value="" style="html=1;points=[[0,0,0,0,5],[0,1,0,0,-5],[1,0,0,0,5],[1,1,0,0,-5]];perimeter=orthogonalPerimeter;outlineConnect=0;targetShapes=umlLifeline;portConstraint=eastwest;newEdgeStyle={&quot;curved&quot;:0,&quot;rounded&quot;:0};" vertex="1" parent="aaZtIB32hJEBYhalZou3-7">
          <mxGeometry x="50" y="320" width="10" height="50" as="geometry" />
        </mxCell>
        <mxCell id="aaZtIB32hJEBYhalZou3-10" value="" style="html=1;points=[[0,0,0,0,5],[0,1,0,0,-5],[1,0,0,0,5],[1,1,0,0,-5]];perimeter=orthogonalPerimeter;outlineConnect=0;targetShapes=umlLifeline;portConstraint=eastwest;newEdgeStyle={&quot;curved&quot;:0,&quot;rounded&quot;:0};" vertex="1" parent="aaZtIB32hJEBYhalZou3-7">
          <mxGeometry x="50" y="430" width="10" height="50" as="geometry" />
        </mxCell>
        <mxCell id="aaZtIB32hJEBYhalZou3-11" value="APIM app registration&lt;div&gt;&lt;i&gt;(Entra ID)&lt;/i&gt;&lt;/div&gt;" style="shape=umlLifeline;perimeter=lifelinePerimeter;whiteSpace=wrap;html=1;container=1;dropTarget=0;collapsible=0;recursiveResize=0;outlineConnect=0;portConstraint=eastwest;newEdgeStyle={&quot;curved&quot;:0,&quot;rounded&quot;:0};" vertex="1" parent="aaZtIB32hJEBYhalZou3-1">
          <mxGeometry x="430" y="80" width="127" height="510" as="geometry" />
        </mxCell>
        <mxCell id="aaZtIB32hJEBYhalZou3-12" value="" style="html=1;points=[[0,0,0,0,5],[0,1,0,0,-5],[1,0,0,0,5],[1,1,0,0,-5]];perimeter=orthogonalPerimeter;outlineConnect=0;targetShapes=umlLifeline;portConstraint=eastwest;newEdgeStyle={&quot;curved&quot;:0,&quot;rounded&quot;:0};" vertex="1" parent="aaZtIB32hJEBYhalZou3-11">
          <mxGeometry x="58.5" y="100" width="10" height="40" as="geometry" />
        </mxCell>
        <mxCell id="aaZtIB32hJEBYhalZou3-13" value="GET" style="html=1;verticalAlign=bottom;endArrow=block;curved=0;rounded=0;entryX=0;entryY=0;entryDx=0;entryDy=5;" edge="1" parent="aaZtIB32hJEBYhalZou3-1" source="aaZtIB32hJEBYhalZou3-6" target="aaZtIB32hJEBYhalZou3-3">
          <mxGeometry x="-0.0041" relative="1" as="geometry">
            <mxPoint x="140" y="165" as="sourcePoint" />
            <mxPoint as="offset" />
          </mxGeometry>
        </mxCell>
        <mxCell id="aaZtIB32hJEBYhalZou3-14" value="200 OK" style="html=1;verticalAlign=bottom;endArrow=open;dashed=1;endSize=8;curved=0;rounded=0;exitX=0;exitY=1;exitDx=0;exitDy=-5;" edge="1" parent="aaZtIB32hJEBYhalZou3-1" source="aaZtIB32hJEBYhalZou3-3" target="aaZtIB32hJEBYhalZou3-6">
          <mxGeometry relative="1" as="geometry">
            <mxPoint x="140" y="235" as="targetPoint" />
          </mxGeometry>
        </mxCell>
        <mxCell id="aaZtIB32hJEBYhalZou3-15" value="200 OK" style="html=1;verticalAlign=bottom;endArrow=open;dashed=1;endSize=8;curved=0;rounded=0;exitX=0;exitY=1;exitDx=0;exitDy=-5;" edge="1" parent="aaZtIB32hJEBYhalZou3-1" source="aaZtIB32hJEBYhalZou3-8" target="aaZtIB32hJEBYhalZou3-3">
          <mxGeometry relative="1" as="geometry">
            <mxPoint x="260" y="345" as="targetPoint" />
          </mxGeometry>
        </mxCell>
        <mxCell id="aaZtIB32hJEBYhalZou3-16" value="GET (token)" style="html=1;verticalAlign=bottom;endArrow=block;curved=0;rounded=0;entryX=0;entryY=0;entryDx=0;entryDy=5;" edge="1" parent="aaZtIB32hJEBYhalZou3-1" source="aaZtIB32hJEBYhalZou3-3" target="aaZtIB32hJEBYhalZou3-8">
          <mxGeometry relative="1" as="geometry">
            <mxPoint x="260" y="275" as="sourcePoint" />
          </mxGeometry>
        </mxCell>
        <mxCell id="aaZtIB32hJEBYhalZou3-17" value="Get token for managed identity" style="html=1;verticalAlign=bottom;endArrow=block;curved=0;rounded=0;entryX=0;entryY=0;entryDx=0;entryDy=5;" edge="1" parent="aaZtIB32hJEBYhalZou3-1" source="aaZtIB32hJEBYhalZou3-3" target="aaZtIB32hJEBYhalZou3-12">
          <mxGeometry relative="1" as="geometry">
            <mxPoint x="390" y="205" as="sourcePoint" />
          </mxGeometry>
        </mxCell>
        <mxCell id="aaZtIB32hJEBYhalZou3-18" value="access token" style="html=1;verticalAlign=bottom;endArrow=open;dashed=1;endSize=8;curved=0;rounded=0;exitX=0;exitY=1;exitDx=0;exitDy=-5;" edge="1" parent="aaZtIB32hJEBYhalZou3-1" source="aaZtIB32hJEBYhalZou3-12" target="aaZtIB32hJEBYhalZou3-3">
          <mxGeometry relative="1" as="geometry">
            <mxPoint x="390" y="275" as="targetPoint" />
          </mxGeometry>
        </mxCell>
        <mxCell id="aaZtIB32hJEBYhalZou3-19" value="" style="html=1;points=[[0,0,0,0,5],[0,1,0,0,-5],[1,0,0,0,5],[1,1,0,0,-5]];perimeter=orthogonalPerimeter;outlineConnect=0;targetShapes=umlLifeline;portConstraint=eastwest;newEdgeStyle={&quot;curved&quot;:0,&quot;rounded&quot;:0};" vertex="1" parent="aaZtIB32hJEBYhalZou3-1">
          <mxGeometry x="215" y="250" width="10" height="30" as="geometry" />
        </mxCell>
        <mxCell id="aaZtIB32hJEBYhalZou3-20" value="cache token" style="html=1;align=left;spacingLeft=2;endArrow=block;rounded=0;edgeStyle=orthogonalEdgeStyle;curved=0;rounded=0;" edge="1" parent="aaZtIB32hJEBYhalZou3-1" target="aaZtIB32hJEBYhalZou3-19">
          <mxGeometry relative="1" as="geometry">
            <mxPoint x="220" y="240" as="sourcePoint" />
            <Array as="points">
              <mxPoint x="220" y="240" />
              <mxPoint x="250" y="240" />
              <mxPoint x="250" y="260" />
            </Array>
          </mxGeometry>
        </mxCell>
        <mxCell id="aaZtIB32hJEBYhalZou3-21" value="POST" style="html=1;verticalAlign=bottom;endArrow=block;curved=0;rounded=0;entryX=0;entryY=0;entryDx=0;entryDy=5;" edge="1" parent="aaZtIB32hJEBYhalZou3-1" source="aaZtIB32hJEBYhalZou3-6" target="aaZtIB32hJEBYhalZou3-4">
          <mxGeometry relative="1" as="geometry">
            <mxPoint x="140" y="395" as="sourcePoint" />
          </mxGeometry>
        </mxCell>
        <mxCell id="aaZtIB32hJEBYhalZou3-22" value="200 OK" style="html=1;verticalAlign=bottom;endArrow=open;dashed=1;endSize=8;curved=0;rounded=0;exitX=0;exitY=1;exitDx=0;exitDy=-5;" edge="1" parent="aaZtIB32hJEBYhalZou3-1" source="aaZtIB32hJEBYhalZou3-4" target="aaZtIB32hJEBYhalZou3-6">
          <mxGeometry relative="1" as="geometry">
            <mxPoint x="140" y="465" as="targetPoint" />
          </mxGeometry>
        </mxCell>
        <mxCell id="aaZtIB32hJEBYhalZou3-23" value="200 OK" style="html=1;verticalAlign=bottom;endArrow=open;dashed=1;endSize=8;curved=0;rounded=0;exitX=0;exitY=1;exitDx=0;exitDy=-5;" edge="1" parent="aaZtIB32hJEBYhalZou3-1" source="aaZtIB32hJEBYhalZou3-9" target="aaZtIB32hJEBYhalZou3-4">
          <mxGeometry relative="1" as="geometry">
            <mxPoint x="267.5" y="485" as="targetPoint" />
          </mxGeometry>
        </mxCell>
        <mxCell id="aaZtIB32hJEBYhalZou3-24" value="POST (cached token)" style="html=1;verticalAlign=bottom;endArrow=block;curved=0;rounded=0;entryX=0;entryY=0;entryDx=0;entryDy=5;" edge="1" parent="aaZtIB32hJEBYhalZou3-1" source="aaZtIB32hJEBYhalZou3-4" target="aaZtIB32hJEBYhalZou3-9">
          <mxGeometry x="-0.0022" relative="1" as="geometry">
            <mxPoint x="267.5" y="415" as="sourcePoint" />
            <mxPoint as="offset" />
          </mxGeometry>
        </mxCell>
        <mxCell id="aaZtIB32hJEBYhalZou3-25" value="401 Unauthorized" style="html=1;verticalAlign=bottom;endArrow=open;dashed=1;endSize=8;curved=0;rounded=0;exitX=0;exitY=1;exitDx=0;exitDy=-5;" edge="1" parent="aaZtIB32hJEBYhalZou3-1" source="aaZtIB32hJEBYhalZou3-10" target="aaZtIB32hJEBYhalZou3-5">
          <mxGeometry relative="1" as="geometry">
            <mxPoint x="280" y="595" as="targetPoint" />
          </mxGeometry>
        </mxCell>
        <mxCell id="aaZtIB32hJEBYhalZou3-26" value="DELETE (cached token)" style="html=1;verticalAlign=bottom;endArrow=block;curved=0;rounded=0;entryX=0;entryY=0;entryDx=0;entryDy=5;" edge="1" parent="aaZtIB32hJEBYhalZou3-1" source="aaZtIB32hJEBYhalZou3-5" target="aaZtIB32hJEBYhalZou3-10">
          <mxGeometry x="-0.0022" relative="1" as="geometry">
            <mxPoint x="280" y="525" as="sourcePoint" />
            <mxPoint as="offset" />
          </mxGeometry>
        </mxCell>
        <mxCell id="aaZtIB32hJEBYhalZou3-27" value="DELETE" style="html=1;verticalAlign=bottom;endArrow=block;curved=0;rounded=0;entryX=0;entryY=0;entryDx=0;entryDy=5;" edge="1" parent="aaZtIB32hJEBYhalZou3-1" source="aaZtIB32hJEBYhalZou3-6" target="aaZtIB32hJEBYhalZou3-5">
          <mxGeometry relative="1" as="geometry">
            <mxPoint x="122.5" y="505" as="sourcePoint" />
          </mxGeometry>
        </mxCell>
        <mxCell id="aaZtIB32hJEBYhalZou3-28" value="401 Unauthorized" style="html=1;verticalAlign=bottom;endArrow=open;dashed=1;endSize=8;curved=0;rounded=0;exitX=0;exitY=1;exitDx=0;exitDy=-5;" edge="1" parent="aaZtIB32hJEBYhalZou3-1" source="aaZtIB32hJEBYhalZou3-5" target="aaZtIB32hJEBYhalZou3-6">
          <mxGeometry relative="1" as="geometry">
            <mxPoint x="122.5" y="575" as="targetPoint" />
          </mxGeometry>
        </mxCell>
      </root>
    </mxGraphModel>
  </diagram>
  <diagram name="workflow-to-apim" id="t7QwAC_K3_I0P63_iUbB">
    <mxGraphModel dx="1426" dy="841" grid="1" gridSize="10" guides="1" tooltips="1" connect="1" arrows="1" fold="1" page="1" pageScale="1" pageWidth="827" pageHeight="1169" math="0" shadow="0">
      <root>
        <mxCell id="PrXeDI8m5_Sf5NQqcaYL-0" />
        <mxCell id="PrXeDI8m5_Sf5NQqcaYL-1" parent="PrXeDI8m5_Sf5NQqcaYL-0" />
        <mxCell id="PrXeDI8m5_Sf5NQqcaYL-2" value="Logic App&lt;div&gt;Workflow&lt;/div&gt;" style="shape=umlLifeline;perimeter=lifelinePerimeter;whiteSpace=wrap;html=1;container=1;dropTarget=0;collapsible=0;recursiveResize=0;outlineConnect=0;portConstraint=eastwest;newEdgeStyle={&quot;curved&quot;:0,&quot;rounded&quot;:0};" vertex="1" parent="PrXeDI8m5_Sf5NQqcaYL-1">
          <mxGeometry x="160" y="80" width="110" height="510" as="geometry" />
        </mxCell>
        <mxCell id="PrXeDI8m5_Sf5NQqcaYL-3" value="" style="html=1;points=[[0,0,0,0,5],[0,1,0,0,-5],[1,0,0,0,5],[1,1,0,0,-5]];perimeter=orthogonalPerimeter;outlineConnect=0;targetShapes=umlLifeline;portConstraint=eastwest;newEdgeStyle={&quot;curved&quot;:0,&quot;rounded&quot;:0};" vertex="1" parent="PrXeDI8m5_Sf5NQqcaYL-2">
          <mxGeometry x="50" y="80" width="10" height="200" as="geometry" />
        </mxCell>
        <mxCell id="PrXeDI8m5_Sf5NQqcaYL-4" value="" style="html=1;points=[[0,0,0,0,5],[0,1,0,0,-5],[1,0,0,0,5],[1,1,0,0,-5]];perimeter=orthogonalPerimeter;outlineConnect=0;targetShapes=umlLifeline;portConstraint=eastwest;newEdgeStyle={&quot;curved&quot;:0,&quot;rounded&quot;:0};" vertex="1" parent="PrXeDI8m5_Sf5NQqcaYL-2">
          <mxGeometry x="50" y="310" width="10" height="80" as="geometry" />
        </mxCell>
        <mxCell id="PrXeDI8m5_Sf5NQqcaYL-5" value="" style="html=1;points=[[0,0,0,0,5],[0,1,0,0,-5],[1,0,0,0,5],[1,1,0,0,-5]];perimeter=orthogonalPerimeter;outlineConnect=0;targetShapes=umlLifeline;portConstraint=eastwest;newEdgeStyle={&quot;curved&quot;:0,&quot;rounded&quot;:0};" vertex="1" parent="PrXeDI8m5_Sf5NQqcaYL-2">
          <mxGeometry x="50" y="415" width="10" height="80" as="geometry" />
        </mxCell>
        <mxCell id="PrXeDI8m5_Sf5NQqcaYL-6" value="" style="shape=umlLifeline;perimeter=lifelinePerimeter;whiteSpace=wrap;html=1;container=1;dropTarget=0;collapsible=0;recursiveResize=0;outlineConnect=0;portConstraint=eastwest;newEdgeStyle={&quot;curved&quot;:0,&quot;rounded&quot;:0};participant=umlActor;" vertex="1" parent="PrXeDI8m5_Sf5NQqcaYL-1">
          <mxGeometry x="90" y="80" width="20" height="510" as="geometry" />
        </mxCell>
        <mxCell id="PrXeDI8m5_Sf5NQqcaYL-7" value="Protected API&lt;div&gt;&lt;i&gt;(API Management)&lt;/i&gt;&lt;/div&gt;" style="shape=umlLifeline;perimeter=lifelinePerimeter;whiteSpace=wrap;html=1;container=1;dropTarget=0;collapsible=0;recursiveResize=0;outlineConnect=0;portConstraint=eastwest;newEdgeStyle={&quot;curved&quot;:0,&quot;rounded&quot;:0};" vertex="1" parent="PrXeDI8m5_Sf5NQqcaYL-1">
          <mxGeometry x="300" y="80" width="110" height="510" as="geometry" />
        </mxCell>
        <mxCell id="PrXeDI8m5_Sf5NQqcaYL-8" value="" style="html=1;points=[[0,0,0,0,5],[0,1,0,0,-5],[1,0,0,0,5],[1,1,0,0,-5]];perimeter=orthogonalPerimeter;outlineConnect=0;targetShapes=umlLifeline;portConstraint=eastwest;newEdgeStyle={&quot;curved&quot;:0,&quot;rounded&quot;:0};" vertex="1" parent="PrXeDI8m5_Sf5NQqcaYL-7">
          <mxGeometry x="50" y="220" width="10" height="40" as="geometry" />
        </mxCell>
        <mxCell id="PrXeDI8m5_Sf5NQqcaYL-9" value="" style="html=1;points=[[0,0,0,0,5],[0,1,0,0,-5],[1,0,0,0,5],[1,1,0,0,-5]];perimeter=orthogonalPerimeter;outlineConnect=0;targetShapes=umlLifeline;portConstraint=eastwest;newEdgeStyle={&quot;curved&quot;:0,&quot;rounded&quot;:0};" vertex="1" parent="PrXeDI8m5_Sf5NQqcaYL-7">
          <mxGeometry x="50" y="320" width="10" height="50" as="geometry" />
        </mxCell>
        <mxCell id="PrXeDI8m5_Sf5NQqcaYL-10" value="" style="html=1;points=[[0,0,0,0,5],[0,1,0,0,-5],[1,0,0,0,5],[1,1,0,0,-5]];perimeter=orthogonalPerimeter;outlineConnect=0;targetShapes=umlLifeline;portConstraint=eastwest;newEdgeStyle={&quot;curved&quot;:0,&quot;rounded&quot;:0};" vertex="1" parent="PrXeDI8m5_Sf5NQqcaYL-7">
          <mxGeometry x="50" y="430" width="10" height="50" as="geometry" />
        </mxCell>
        <mxCell id="PrXeDI8m5_Sf5NQqcaYL-11" value="APIM app registration&lt;div&gt;&lt;i&gt;(Entra ID)&lt;/i&gt;&lt;/div&gt;" style="shape=umlLifeline;perimeter=lifelinePerimeter;whiteSpace=wrap;html=1;container=1;dropTarget=0;collapsible=0;recursiveResize=0;outlineConnect=0;portConstraint=eastwest;newEdgeStyle={&quot;curved&quot;:0,&quot;rounded&quot;:0};" vertex="1" parent="PrXeDI8m5_Sf5NQqcaYL-1">
          <mxGeometry x="430" y="80" width="127" height="510" as="geometry" />
        </mxCell>
        <mxCell id="PrXeDI8m5_Sf5NQqcaYL-12" value="" style="html=1;points=[[0,0,0,0,5],[0,1,0,0,-5],[1,0,0,0,5],[1,1,0,0,-5]];perimeter=orthogonalPerimeter;outlineConnect=0;targetShapes=umlLifeline;portConstraint=eastwest;newEdgeStyle={&quot;curved&quot;:0,&quot;rounded&quot;:0};" vertex="1" parent="PrXeDI8m5_Sf5NQqcaYL-11">
          <mxGeometry x="58.5" y="100" width="10" height="40" as="geometry" />
        </mxCell>
        <mxCell id="PrXeDI8m5_Sf5NQqcaYL-13" value="GET" style="html=1;verticalAlign=bottom;endArrow=block;curved=0;rounded=0;entryX=0;entryY=0;entryDx=0;entryDy=5;" edge="1" parent="PrXeDI8m5_Sf5NQqcaYL-1" source="PrXeDI8m5_Sf5NQqcaYL-6" target="PrXeDI8m5_Sf5NQqcaYL-3">
          <mxGeometry x="-0.0041" relative="1" as="geometry">
            <mxPoint x="140" y="165" as="sourcePoint" />
            <mxPoint as="offset" />
          </mxGeometry>
        </mxCell>
        <mxCell id="PrXeDI8m5_Sf5NQqcaYL-14" value="200 OK" style="html=1;verticalAlign=bottom;endArrow=open;dashed=1;endSize=8;curved=0;rounded=0;exitX=0;exitY=1;exitDx=0;exitDy=-5;" edge="1" parent="PrXeDI8m5_Sf5NQqcaYL-1" source="PrXeDI8m5_Sf5NQqcaYL-3" target="PrXeDI8m5_Sf5NQqcaYL-6">
          <mxGeometry relative="1" as="geometry">
            <mxPoint x="140" y="235" as="targetPoint" />
          </mxGeometry>
        </mxCell>
        <mxCell id="PrXeDI8m5_Sf5NQqcaYL-15" value="200 OK" style="html=1;verticalAlign=bottom;endArrow=open;dashed=1;endSize=8;curved=0;rounded=0;exitX=0;exitY=1;exitDx=0;exitDy=-5;" edge="1" parent="PrXeDI8m5_Sf5NQqcaYL-1" source="PrXeDI8m5_Sf5NQqcaYL-8" target="PrXeDI8m5_Sf5NQqcaYL-3">
          <mxGeometry relative="1" as="geometry">
            <mxPoint x="260" y="345" as="targetPoint" />
          </mxGeometry>
        </mxCell>
        <mxCell id="PrXeDI8m5_Sf5NQqcaYL-16" value="GET (token)" style="html=1;verticalAlign=bottom;endArrow=block;curved=0;rounded=0;entryX=0;entryY=0;entryDx=0;entryDy=5;" edge="1" parent="PrXeDI8m5_Sf5NQqcaYL-1" source="PrXeDI8m5_Sf5NQqcaYL-3" target="PrXeDI8m5_Sf5NQqcaYL-8">
          <mxGeometry relative="1" as="geometry">
            <mxPoint x="260" y="275" as="sourcePoint" />
          </mxGeometry>
        </mxCell>
        <mxCell id="PrXeDI8m5_Sf5NQqcaYL-17" value="Get token for managed identity" style="html=1;verticalAlign=bottom;endArrow=block;curved=0;rounded=0;entryX=0;entryY=0;entryDx=0;entryDy=5;" edge="1" parent="PrXeDI8m5_Sf5NQqcaYL-1" source="PrXeDI8m5_Sf5NQqcaYL-3" target="PrXeDI8m5_Sf5NQqcaYL-12">
          <mxGeometry relative="1" as="geometry">
            <mxPoint x="390" y="205" as="sourcePoint" />
          </mxGeometry>
        </mxCell>
        <mxCell id="PrXeDI8m5_Sf5NQqcaYL-18" value="access token" style="html=1;verticalAlign=bottom;endArrow=open;dashed=1;endSize=8;curved=0;rounded=0;exitX=0;exitY=1;exitDx=0;exitDy=-5;" edge="1" parent="PrXeDI8m5_Sf5NQqcaYL-1" source="PrXeDI8m5_Sf5NQqcaYL-12" target="PrXeDI8m5_Sf5NQqcaYL-3">
          <mxGeometry relative="1" as="geometry">
            <mxPoint x="390" y="275" as="targetPoint" />
          </mxGeometry>
        </mxCell>
        <mxCell id="PrXeDI8m5_Sf5NQqcaYL-19" value="" style="html=1;points=[[0,0,0,0,5],[0,1,0,0,-5],[1,0,0,0,5],[1,1,0,0,-5]];perimeter=orthogonalPerimeter;outlineConnect=0;targetShapes=umlLifeline;portConstraint=eastwest;newEdgeStyle={&quot;curved&quot;:0,&quot;rounded&quot;:0};" vertex="1" parent="PrXeDI8m5_Sf5NQqcaYL-1">
          <mxGeometry x="215" y="250" width="10" height="30" as="geometry" />
        </mxCell>
        <mxCell id="PrXeDI8m5_Sf5NQqcaYL-20" value="cache token" style="html=1;align=left;spacingLeft=2;endArrow=block;rounded=0;edgeStyle=orthogonalEdgeStyle;curved=0;rounded=0;" edge="1" parent="PrXeDI8m5_Sf5NQqcaYL-1" target="PrXeDI8m5_Sf5NQqcaYL-19">
          <mxGeometry relative="1" as="geometry">
            <mxPoint x="220" y="240" as="sourcePoint" />
            <Array as="points">
              <mxPoint x="220" y="240" />
              <mxPoint x="250" y="240" />
              <mxPoint x="250" y="260" />
            </Array>
          </mxGeometry>
        </mxCell>
        <mxCell id="PrXeDI8m5_Sf5NQqcaYL-21" value="POST" style="html=1;verticalAlign=bottom;endArrow=block;curved=0;rounded=0;entryX=0;entryY=0;entryDx=0;entryDy=5;" edge="1" parent="PrXeDI8m5_Sf5NQqcaYL-1" source="PrXeDI8m5_Sf5NQqcaYL-6" target="PrXeDI8m5_Sf5NQqcaYL-4">
          <mxGeometry relative="1" as="geometry">
            <mxPoint x="140" y="395" as="sourcePoint" />
          </mxGeometry>
        </mxCell>
        <mxCell id="PrXeDI8m5_Sf5NQqcaYL-22" value="200 OK" style="html=1;verticalAlign=bottom;endArrow=open;dashed=1;endSize=8;curved=0;rounded=0;exitX=0;exitY=1;exitDx=0;exitDy=-5;" edge="1" parent="PrXeDI8m5_Sf5NQqcaYL-1" source="PrXeDI8m5_Sf5NQqcaYL-4" target="PrXeDI8m5_Sf5NQqcaYL-6">
          <mxGeometry relative="1" as="geometry">
            <mxPoint x="140" y="465" as="targetPoint" />
          </mxGeometry>
        </mxCell>
        <mxCell id="PrXeDI8m5_Sf5NQqcaYL-23" value="200 OK" style="html=1;verticalAlign=bottom;endArrow=open;dashed=1;endSize=8;curved=0;rounded=0;exitX=0;exitY=1;exitDx=0;exitDy=-5;" edge="1" parent="PrXeDI8m5_Sf5NQqcaYL-1" source="PrXeDI8m5_Sf5NQqcaYL-9" target="PrXeDI8m5_Sf5NQqcaYL-4">
          <mxGeometry relative="1" as="geometry">
            <mxPoint x="267.5" y="485" as="targetPoint" />
          </mxGeometry>
        </mxCell>
        <mxCell id="PrXeDI8m5_Sf5NQqcaYL-24" value="POST (cached token)" style="html=1;verticalAlign=bottom;endArrow=block;curved=0;rounded=0;entryX=0;entryY=0;entryDx=0;entryDy=5;" edge="1" parent="PrXeDI8m5_Sf5NQqcaYL-1" source="PrXeDI8m5_Sf5NQqcaYL-4" target="PrXeDI8m5_Sf5NQqcaYL-9">
          <mxGeometry x="-0.0022" relative="1" as="geometry">
            <mxPoint x="267.5" y="415" as="sourcePoint" />
            <mxPoint as="offset" />
          </mxGeometry>
        </mxCell>
        <mxCell id="PrXeDI8m5_Sf5NQqcaYL-25" value="401 Unauthorized" style="html=1;verticalAlign=bottom;endArrow=open;dashed=1;endSize=8;curved=0;rounded=0;exitX=0;exitY=1;exitDx=0;exitDy=-5;" edge="1" parent="PrXeDI8m5_Sf5NQqcaYL-1" source="PrXeDI8m5_Sf5NQqcaYL-10" target="PrXeDI8m5_Sf5NQqcaYL-5">
          <mxGeometry relative="1" as="geometry">
            <mxPoint x="280" y="595" as="targetPoint" />
          </mxGeometry>
        </mxCell>
        <mxCell id="PrXeDI8m5_Sf5NQqcaYL-26" value="DELETE (cached token)" style="html=1;verticalAlign=bottom;endArrow=block;curved=0;rounded=0;entryX=0;entryY=0;entryDx=0;entryDy=5;" edge="1" parent="PrXeDI8m5_Sf5NQqcaYL-1" source="PrXeDI8m5_Sf5NQqcaYL-5" target="PrXeDI8m5_Sf5NQqcaYL-10">
          <mxGeometry x="-0.0022" relative="1" as="geometry">
            <mxPoint x="280" y="525" as="sourcePoint" />
            <mxPoint as="offset" />
          </mxGeometry>
        </mxCell>
        <mxCell id="PrXeDI8m5_Sf5NQqcaYL-27" value="DELETE" style="html=1;verticalAlign=bottom;endArrow=block;curved=0;rounded=0;entryX=0;entryY=0;entryDx=0;entryDy=5;" edge="1" parent="PrXeDI8m5_Sf5NQqcaYL-1" source="PrXeDI8m5_Sf5NQqcaYL-6" target="PrXeDI8m5_Sf5NQqcaYL-5">
          <mxGeometry relative="1" as="geometry">
            <mxPoint x="122.5" y="505" as="sourcePoint" />
          </mxGeometry>
        </mxCell>
        <mxCell id="PrXeDI8m5_Sf5NQqcaYL-28" value="401 Unauthorized" style="html=1;verticalAlign=bottom;endArrow=open;dashed=1;endSize=8;curved=0;rounded=0;exitX=0;exitY=1;exitDx=0;exitDy=-5;" edge="1" parent="PrXeDI8m5_Sf5NQqcaYL-1" source="PrXeDI8m5_Sf5NQqcaYL-5" target="PrXeDI8m5_Sf5NQqcaYL-6">
          <mxGeometry relative="1" as="geometry">
            <mxPoint x="122.5" y="575" as="targetPoint" />
          </mxGeometry>
        </mxCell>
      </root>
    </mxGraphModel>
  </diagram>
  <diagram name="integration-tests-to-apim" id="cfGx5CivoDd-S1Tryw7v">
    <mxGraphModel dx="1425" dy="828" grid="1" gridSize="10" guides="1" tooltips="1" connect="1" arrows="1" fold="1" page="1" pageScale="1" pageWidth="827" pageHeight="1169" math="0" shadow="0">
      <root>
        <mxCell id="at9RUYXMmkU2G_ZFUUyU-0" />
        <mxCell id="at9RUYXMmkU2G_ZFUUyU-1" parent="at9RUYXMmkU2G_ZFUUyU-0" />
        <mxCell id="at9RUYXMmkU2G_ZFUUyU-2" value="Integration&lt;div&gt;Tests&lt;/div&gt;" style="shape=umlLifeline;perimeter=lifelinePerimeter;whiteSpace=wrap;html=1;container=1;dropTarget=0;collapsible=0;recursiveResize=0;outlineConnect=0;portConstraint=eastwest;newEdgeStyle={&quot;curved&quot;:0,&quot;rounded&quot;:0};" vertex="1" parent="at9RUYXMmkU2G_ZFUUyU-1">
          <mxGeometry x="160" y="80" width="110" height="430" as="geometry" />
        </mxCell>
        <mxCell id="at9RUYXMmkU2G_ZFUUyU-7" value="Protected API&lt;div&gt;&lt;i&gt;(API Management)&lt;/i&gt;&lt;/div&gt;" style="shape=umlLifeline;perimeter=lifelinePerimeter;whiteSpace=wrap;html=1;container=1;dropTarget=0;collapsible=0;recursiveResize=0;outlineConnect=0;portConstraint=eastwest;newEdgeStyle={&quot;curved&quot;:0,&quot;rounded&quot;:0};" vertex="1" parent="at9RUYXMmkU2G_ZFUUyU-1">
          <mxGeometry x="300" y="80" width="110" height="430" as="geometry" />
        </mxCell>
        <mxCell id="at9RUYXMmkU2G_ZFUUyU-8" value="" style="html=1;points=[[0,0,0,0,5],[0,1,0,0,-5],[1,0,0,0,5],[1,1,0,0,-5]];perimeter=orthogonalPerimeter;outlineConnect=0;targetShapes=umlLifeline;portConstraint=eastwest;newEdgeStyle={&quot;curved&quot;:0,&quot;rounded&quot;:0};" vertex="1" parent="at9RUYXMmkU2G_ZFUUyU-7">
          <mxGeometry x="50" y="180" width="10" height="40" as="geometry" />
        </mxCell>
        <mxCell id="at9RUYXMmkU2G_ZFUUyU-15" value="200 OK" style="html=1;verticalAlign=bottom;endArrow=open;dashed=1;endSize=8;curved=0;rounded=0;exitX=0;exitY=1;exitDx=0;exitDy=-5;" edge="1" parent="at9RUYXMmkU2G_ZFUUyU-7" source="at9RUYXMmkU2G_ZFUUyU-8">
          <mxGeometry relative="1" as="geometry">
            <mxPoint x="-85.18965517241372" y="215" as="targetPoint" />
          </mxGeometry>
        </mxCell>
        <mxCell id="at9RUYXMmkU2G_ZFUUyU-16" value="GET (token)" style="html=1;verticalAlign=bottom;endArrow=block;curved=0;rounded=0;entryX=0;entryY=0;entryDx=0;entryDy=5;" edge="1" parent="at9RUYXMmkU2G_ZFUUyU-7" target="at9RUYXMmkU2G_ZFUUyU-8">
          <mxGeometry relative="1" as="geometry">
            <mxPoint x="-85.18965517241372" y="185" as="sourcePoint" />
          </mxGeometry>
        </mxCell>
        <mxCell id="at9RUYXMmkU2G_ZFUUyU-9" value="" style="html=1;points=[[0,0,0,0,5],[0,1,0,0,-5],[1,0,0,0,5],[1,1,0,0,-5]];perimeter=orthogonalPerimeter;outlineConnect=0;targetShapes=umlLifeline;portConstraint=eastwest;newEdgeStyle={&quot;curved&quot;:0,&quot;rounded&quot;:0};" vertex="1" parent="at9RUYXMmkU2G_ZFUUyU-7">
          <mxGeometry x="50" y="260" width="10" height="50" as="geometry" />
        </mxCell>
        <mxCell id="at9RUYXMmkU2G_ZFUUyU-23" value="200 OK" style="html=1;verticalAlign=bottom;endArrow=open;dashed=1;endSize=8;curved=0;rounded=0;exitX=0;exitY=1;exitDx=0;exitDy=-5;" edge="1" parent="at9RUYXMmkU2G_ZFUUyU-7" source="at9RUYXMmkU2G_ZFUUyU-9">
          <mxGeometry relative="1" as="geometry">
            <mxPoint x="-85.18965517241372" y="305" as="targetPoint" />
          </mxGeometry>
        </mxCell>
        <mxCell id="at9RUYXMmkU2G_ZFUUyU-24" value="POST (cached token)" style="html=1;verticalAlign=bottom;endArrow=block;curved=0;rounded=0;entryX=0;entryY=0;entryDx=0;entryDy=5;" edge="1" parent="at9RUYXMmkU2G_ZFUUyU-7" target="at9RUYXMmkU2G_ZFUUyU-9">
          <mxGeometry x="-0.0022" relative="1" as="geometry">
            <mxPoint x="-85.18965517241372" y="265" as="sourcePoint" />
            <mxPoint as="offset" />
          </mxGeometry>
        </mxCell>
        <mxCell id="at9RUYXMmkU2G_ZFUUyU-10" value="" style="html=1;points=[[0,0,0,0,5],[0,1,0,0,-5],[1,0,0,0,5],[1,1,0,0,-5]];perimeter=orthogonalPerimeter;outlineConnect=0;targetShapes=umlLifeline;portConstraint=eastwest;newEdgeStyle={&quot;curved&quot;:0,&quot;rounded&quot;:0};" vertex="1" parent="at9RUYXMmkU2G_ZFUUyU-7">
          <mxGeometry x="50" y="350" width="10" height="50" as="geometry" />
        </mxCell>
        <mxCell id="at9RUYXMmkU2G_ZFUUyU-25" value="401 Unauthorized" style="html=1;verticalAlign=bottom;endArrow=open;dashed=1;endSize=8;curved=0;rounded=0;exitX=0;exitY=1;exitDx=0;exitDy=-5;" edge="1" parent="at9RUYXMmkU2G_ZFUUyU-7" source="at9RUYXMmkU2G_ZFUUyU-10">
          <mxGeometry relative="1" as="geometry">
            <mxPoint x="-85.18965517241372" y="395" as="targetPoint" />
          </mxGeometry>
        </mxCell>
        <mxCell id="at9RUYXMmkU2G_ZFUUyU-26" value="DELETE (cached token)" style="html=1;verticalAlign=bottom;endArrow=block;curved=0;rounded=0;entryX=0;entryY=0;entryDx=0;entryDy=5;" edge="1" parent="at9RUYXMmkU2G_ZFUUyU-7" target="at9RUYXMmkU2G_ZFUUyU-10">
          <mxGeometry x="-0.0022" relative="1" as="geometry">
            <mxPoint x="-85.18965517241372" y="355" as="sourcePoint" />
            <mxPoint as="offset" />
          </mxGeometry>
        </mxCell>
        <mxCell id="at9RUYXMmkU2G_ZFUUyU-11" value="APIM app registration&lt;div&gt;&lt;i&gt;(Entra ID)&lt;/i&gt;&lt;/div&gt;" style="shape=umlLifeline;perimeter=lifelinePerimeter;whiteSpace=wrap;html=1;container=1;dropTarget=0;collapsible=0;recursiveResize=0;outlineConnect=0;portConstraint=eastwest;newEdgeStyle={&quot;curved&quot;:0,&quot;rounded&quot;:0};" vertex="1" parent="at9RUYXMmkU2G_ZFUUyU-1">
          <mxGeometry x="430" y="80" width="127" height="430" as="geometry" />
        </mxCell>
        <mxCell id="at9RUYXMmkU2G_ZFUUyU-12" value="" style="html=1;points=[[0,0,0,0,5],[0,1,0,0,-5],[1,0,0,0,5],[1,1,0,0,-5]];perimeter=orthogonalPerimeter;outlineConnect=0;targetShapes=umlLifeline;portConstraint=eastwest;newEdgeStyle={&quot;curved&quot;:0,&quot;rounded&quot;:0};" vertex="1" parent="at9RUYXMmkU2G_ZFUUyU-11">
          <mxGeometry x="58.5" y="100" width="10" height="40" as="geometry" />
        </mxCell>
        <mxCell id="at9RUYXMmkU2G_ZFUUyU-17" value="Get token using pipeline credentials" style="html=1;verticalAlign=bottom;endArrow=block;curved=0;rounded=0;entryX=0;entryY=0;entryDx=0;entryDy=5;" edge="1" parent="at9RUYXMmkU2G_ZFUUyU-1" target="at9RUYXMmkU2G_ZFUUyU-12">
          <mxGeometry relative="1" as="geometry">
            <mxPoint x="215" y="185" as="sourcePoint" />
          </mxGeometry>
        </mxCell>
        <mxCell id="at9RUYXMmkU2G_ZFUUyU-18" value="access token" style="html=1;verticalAlign=bottom;endArrow=open;dashed=1;endSize=8;curved=0;rounded=0;exitX=0;exitY=1;exitDx=0;exitDy=-5;" edge="1" parent="at9RUYXMmkU2G_ZFUUyU-1" source="at9RUYXMmkU2G_ZFUUyU-12" target="at9RUYXMmkU2G_ZFUUyU-2">
          <mxGeometry relative="1" as="geometry">
            <mxPoint x="220" y="215" as="targetPoint" />
          </mxGeometry>
        </mxCell>
      </root>
    </mxGraphModel>
  </diagram>
  <diagram name="overview-function" id="DpOyvqbOm_4lhZxn88qD">
    <mxGraphModel dx="1426" dy="841" grid="1" gridSize="10" guides="1" tooltips="1" connect="1" arrows="1" fold="1" page="1" pageScale="1" pageWidth="827" pageHeight="1169" math="0" shadow="0">
      <root>
        <mxCell id="WeaQkKvI85tICpbnAP0j-0" />
        <mxCell id="WeaQkKvI85tICpbnAP0j-1" parent="WeaQkKvI85tICpbnAP0j-0" />
        <mxCell id="WeaQkKvI85tICpbnAP0j-3" value="Client" style="verticalLabelPosition=bottom;html=1;verticalAlign=top;align=center;strokeColor=none;fillColor=#00BEF2;shape=mxgraph.azure.user;fontStyle=0;labelBackgroundColor=default;" parent="WeaQkKvI85tICpbnAP0j-1" vertex="1">
          <mxGeometry x="50" y="140" width="47.5" height="50" as="geometry" />
        </mxCell>
        <mxCell id="WeaQkKvI85tICpbnAP0j-5" value="" style="rounded=1;whiteSpace=wrap;html=1;dashed=1;" parent="WeaQkKvI85tICpbnAP0j-1" vertex="1">
          <mxGeometry x="385" y="320" width="200" height="260" as="geometry" />
        </mxCell>
        <mxCell id="WeaQkKvI85tICpbnAP0j-6" value="Microsoft Entra ID" style="image;aspect=fixed;html=1;points=[];align=center;fontSize=12;image=img/lib/azure2/other/Entra_Identity.svg;" parent="WeaQkKvI85tICpbnAP0j-1" vertex="1">
          <mxGeometry x="451" y="280" width="68" height="60.440000000000005" as="geometry" />
        </mxCell>
        <mxCell id="WeaQkKvI85tICpbnAP0j-7" value="&lt;div&gt;&lt;span style=&quot;background-color: transparent; color: light-dark(rgb(0, 0, 0), rgb(255, 255, 255));&quot;&gt;&amp;nbsp; &amp;nbsp; &amp;nbsp; &amp;nbsp;App roles:&lt;/span&gt;&lt;/div&gt;&lt;div&gt;&lt;ul&gt;&lt;li&gt;Sample.Read&lt;/li&gt;&lt;li&gt;Sample.Write&lt;/li&gt;&lt;li&gt;Sample.Delete&lt;/li&gt;&lt;/ul&gt;&lt;/div&gt;" style="rounded=1;whiteSpace=wrap;html=1;fillColor=#dae8fc;strokeColor=#6c8ebf;align=left;verticalAlign=bottom;" parent="WeaQkKvI85tICpbnAP0j-1" vertex="1">
          <mxGeometry x="405" y="400" width="160" height="160" as="geometry" />
        </mxCell>
        <mxCell id="WeaQkKvI85tICpbnAP0j-8" value="API Management&lt;div&gt;&lt;span style=&quot;font-weight: normal;&quot;&gt;(app registration)&lt;/span&gt;&lt;/div&gt;" style="image;sketch=0;aspect=fixed;html=1;points=[];align=center;fontSize=12;image=img/lib/mscae/App_Registrations.svg;fontStyle=1;labelBackgroundColor=none;" parent="WeaQkKvI85tICpbnAP0j-1" vertex="1">
          <mxGeometry x="460" y="375" width="50" height="50" as="geometry" />
        </mxCell>
        <mxCell id="WeaQkKvI85tICpbnAP0j-9" value="" style="shape=curlyBracket;whiteSpace=wrap;html=1;rounded=1;labelPosition=left;verticalLabelPosition=middle;align=right;verticalAlign=middle;" parent="WeaQkKvI85tICpbnAP0j-1" vertex="1">
          <mxGeometry x="415" y="505" width="14.5" height="25" as="geometry" />
        </mxCell>
        <mxCell id="WeaQkKvI85tICpbnAP0j-10" value="" style="shape=curlyBracket;whiteSpace=wrap;html=1;rounded=1;flipH=1;labelPosition=right;verticalLabelPosition=middle;align=left;verticalAlign=middle;" parent="WeaQkKvI85tICpbnAP0j-1" vertex="1">
          <mxGeometry x="525" y="502" width="15.5" height="44" as="geometry" />
        </mxCell>
        <mxCell id="WeaQkKvI85tICpbnAP0j-11" value="requires" style="edgeStyle=orthogonalEdgeStyle;rounded=0;orthogonalLoop=1;jettySize=auto;html=1;entryX=0.1;entryY=0.5;entryDx=0;entryDy=0;entryPerimeter=0;dashed=1;" parent="WeaQkKvI85tICpbnAP0j-1" source="WeaQkKvI85tICpbnAP0j-17" target="WeaQkKvI85tICpbnAP0j-10" edge="1">
          <mxGeometry x="-0.7168" y="15" relative="1" as="geometry">
            <Array as="points">
              <mxPoint x="660" y="165" />
              <mxPoint x="660" y="524" />
            </Array>
            <mxPoint as="offset" />
          </mxGeometry>
        </mxCell>
        <mxCell id="PLxmhmA9CcZ1DhDmc8XZ-1" value="has" style="edgeStyle=orthogonalEdgeStyle;rounded=0;orthogonalLoop=1;jettySize=auto;html=1;dashed=1;" parent="WeaQkKvI85tICpbnAP0j-1" source="WeaQkKvI85tICpbnAP0j-12" target="PLxmhmA9CcZ1DhDmc8XZ-0" edge="1">
          <mxGeometry relative="1" as="geometry" />
        </mxCell>
        <mxCell id="WeaQkKvI85tICpbnAP0j-14" value="has roles&lt;div&gt;assigned&lt;/div&gt;" style="rounded=0;orthogonalLoop=1;jettySize=auto;html=1;dashed=1;labelBackgroundColor=default;entryX=0.1;entryY=0.5;entryDx=0;entryDy=0;entryPerimeter=0;edgeStyle=orthogonalEdgeStyle;" parent="WeaQkKvI85tICpbnAP0j-1" source="PLxmhmA9CcZ1DhDmc8XZ-0" target="WeaQkKvI85tICpbnAP0j-9" edge="1">
          <mxGeometry x="-0.4102" relative="1" as="geometry">
            <mxPoint as="offset" />
            <mxPoint x="300" y="520" as="sourcePoint" />
            <mxPoint x="521" y="689" as="targetPoint" />
            <Array as="points">
              <mxPoint x="254" y="518" />
              <mxPoint x="300" y="518" />
            </Array>
          </mxGeometry>
        </mxCell>
        <mxCell id="WeaQkKvI85tICpbnAP0j-15" value="1. calls resource&lt;div&gt;without authentication&lt;/div&gt;" style="edgeStyle=orthogonalEdgeStyle;rounded=0;orthogonalLoop=1;jettySize=auto;html=1;" parent="WeaQkKvI85tICpbnAP0j-1" source="WeaQkKvI85tICpbnAP0j-3" target="WeaQkKvI85tICpbnAP0j-12" edge="1">
          <mxGeometry x="-0.0566" y="20" relative="1" as="geometry">
            <mxPoint as="offset" />
            <mxPoint x="120" y="30" as="sourcePoint" />
            <mxPoint x="290" y="45" as="targetPoint" />
            <Array as="points" />
          </mxGeometry>
        </mxCell>
        <mxCell id="WeaQkKvI85tICpbnAP0j-16" value="" style="rounded=1;whiteSpace=wrap;html=1;dashed=1;fillColor=none;" parent="WeaQkKvI85tICpbnAP0j-1" vertex="1">
          <mxGeometry x="410" y="60" width="150" height="170" as="geometry" />
        </mxCell>
        <mxCell id="WeaQkKvI85tICpbnAP0j-17" value="Protected API" style="shape=image;verticalLabelPosition=bottom;labelBackgroundColor=default;verticalAlign=top;aspect=fixed;imageAspect=0;image=data:image/svg+xml,PHN2ZyB4bWxucz0iaHR0cDovL3d3dy53My5vcmcvMjAwMC9zdmciIHZpZXdCb3g9IjAgMCA1MCA1MCI+JiN4YTsgICAgPHBhdGggZmlsbD0iIzU3YTMwMCIgZD0iTTAgMjAuODRoMTkuNTV2OC4zMkgweiIvPiYjeGE7ICAgIDxwYXRoIGZpbGw9IiM1OWI0ZDkiIGQ9Ik00MS42OCAyMC44NGgxMC4yNnY4LjMySDQxLjY4eiIvPiYjeGE7ICAgIDxjaXJjbGUgZmlsbD0iIzU3YTMwMCIgcj0iOS40NiIgY3k9IjI1IiBjeD0iMjAuMTIiLz4mI3hhOyAgICA8cGF0aCBmaWxsPSIjNTliNGQ5IiBkPSJNMjAuMTIuNDh2MTAuOTZhMSAxIDAgMCAxIDAgMjcuMTR2MTAuOTZhMSAxIDAgMCAwIDAtNDkuMDVaIi8+JiN4YTs8L3N2Zz4=;imageBackground=none;fontStyle=1" parent="WeaQkKvI85tICpbnAP0j-1" vertex="1">
          <mxGeometry x="460" y="140" width="50" height="50" as="geometry" />
        </mxCell>
        <mxCell id="WeaQkKvI85tICpbnAP0j-18" value="3. calls API&lt;div&gt;with Bearer token&lt;/div&gt;" style="rounded=0;orthogonalLoop=1;jettySize=auto;html=1;" parent="WeaQkKvI85tICpbnAP0j-1" source="WeaQkKvI85tICpbnAP0j-12" target="WeaQkKvI85tICpbnAP0j-17" edge="1">
          <mxGeometry x="-0.304" y="2" relative="1" as="geometry">
            <mxPoint x="510" y="290" as="targetPoint" />
            <mxPoint as="offset" />
            <mxPoint x="360" y="269.7297297297298" as="sourcePoint" />
          </mxGeometry>
        </mxCell>
        <mxCell id="WeaQkKvI85tICpbnAP0j-19" value="2. retrieves&amp;nbsp;&lt;div&gt;token using&lt;/div&gt;&lt;div&gt;managed&amp;nbsp;&lt;/div&gt;&lt;div&gt;identity for&lt;/div&gt;" style="rounded=0;orthogonalLoop=1;jettySize=auto;html=1;" parent="WeaQkKvI85tICpbnAP0j-1" source="WeaQkKvI85tICpbnAP0j-12" target="WeaQkKvI85tICpbnAP0j-7" edge="1">
          <mxGeometry x="-0.0713" y="-1" relative="1" as="geometry">
            <mxPoint x="360" y="320" as="sourcePoint" />
            <mxPoint as="offset" />
            <mxPoint x="500.37735849056594" y="560" as="targetPoint" />
          </mxGeometry>
        </mxCell>
        <mxCell id="WeaQkKvI85tICpbnAP0j-20" value="API Management" style="image;aspect=fixed;html=1;points=[];align=center;fontSize=12;image=img/lib/azure2/app_services/API_Management_Services.svg;imageBackground=default;" parent="WeaQkKvI85tICpbnAP0j-1" vertex="1">
          <mxGeometry x="452.5" y="30" width="65" height="60" as="geometry" />
        </mxCell>
        <mxCell id="PLxmhmA9CcZ1DhDmc8XZ-0" value="system-assigned&lt;div&gt;managed identity&lt;/div&gt;" style="image;sketch=0;aspect=fixed;html=1;points=[];align=center;fontSize=12;image=img/lib/mscae/Managed_Identities.svg;imageBackground=default;" parent="WeaQkKvI85tICpbnAP0j-1" vertex="1">
          <mxGeometry x="235" y="290.44" width="38" height="50" as="geometry" />
        </mxCell>
        <mxCell id="WeaQkKvI85tICpbnAP0j-12" value="Azure Function" style="image;aspect=fixed;html=1;points=[];align=center;fontSize=12;image=img/lib/azure2/compute/Function_Apps.svg;fontStyle=1;labelBackgroundColor=default;imageBackground=default;" parent="WeaQkKvI85tICpbnAP0j-1" vertex="1">
          <mxGeometry x="220" y="135" width="68" height="60" as="geometry" />
        </mxCell>
      </root>
    </mxGraphModel>
  </diagram>
  <diagram name="overview-function-simplified" id="EMagM2drcH0aq4DUq5Uw">
    <mxGraphModel dx="1426" dy="841" grid="1" gridSize="10" guides="1" tooltips="1" connect="1" arrows="1" fold="1" page="1" pageScale="1" pageWidth="827" pageHeight="1169" math="0" shadow="0">
      <root>
        <mxCell id="8PD50v8X8vJW0gSdt90y-0" />
        <mxCell id="8PD50v8X8vJW0gSdt90y-1" parent="8PD50v8X8vJW0gSdt90y-0" />
        <mxCell id="8PD50v8X8vJW0gSdt90y-2" value="Client" style="verticalLabelPosition=bottom;html=1;verticalAlign=top;align=center;strokeColor=none;fillColor=#00BEF2;shape=mxgraph.azure.user;fontStyle=0;labelBackgroundColor=default;" parent="8PD50v8X8vJW0gSdt90y-1" vertex="1">
          <mxGeometry x="50" y="140" width="47.5" height="50" as="geometry" />
        </mxCell>
        <mxCell id="8PD50v8X8vJW0gSdt90y-3" value="" style="rounded=1;whiteSpace=wrap;html=1;dashed=1;" parent="8PD50v8X8vJW0gSdt90y-1" vertex="1">
          <mxGeometry x="410" y="290" width="150" height="160" as="geometry" />
        </mxCell>
        <mxCell id="8PD50v8X8vJW0gSdt90y-4" value="Microsoft Entra ID" style="image;aspect=fixed;html=1;points=[];align=center;fontSize=12;image=img/lib/azure2/other/Entra_Identity.svg;" parent="8PD50v8X8vJW0gSdt90y-1" vertex="1">
          <mxGeometry x="451" y="250" width="68" height="60.440000000000005" as="geometry" />
        </mxCell>
        <mxCell id="8PD50v8X8vJW0gSdt90y-6" value="API Management&lt;div&gt;&lt;span style=&quot;font-weight: normal;&quot;&gt;(app registration)&lt;/span&gt;&lt;/div&gt;" style="image;sketch=0;aspect=fixed;html=1;points=[];align=center;fontSize=12;image=img/lib/mscae/App_Registrations.svg;fontStyle=1;labelBackgroundColor=none;" parent="8PD50v8X8vJW0gSdt90y-1" vertex="1">
          <mxGeometry x="460" y="345" width="50" height="50" as="geometry" />
        </mxCell>
        <mxCell id="8PD50v8X8vJW0gSdt90y-13" value="1. calls resource&lt;div&gt;without authentication&lt;/div&gt;" style="edgeStyle=orthogonalEdgeStyle;rounded=0;orthogonalLoop=1;jettySize=auto;html=1;" parent="8PD50v8X8vJW0gSdt90y-1" source="8PD50v8X8vJW0gSdt90y-2" target="8PD50v8X8vJW0gSdt90y-11" edge="1">
          <mxGeometry x="-0.0566" y="20" relative="1" as="geometry">
            <mxPoint as="offset" />
            <mxPoint x="120" y="30" as="sourcePoint" />
            <mxPoint x="290" y="45" as="targetPoint" />
            <Array as="points" />
          </mxGeometry>
        </mxCell>
        <mxCell id="8PD50v8X8vJW0gSdt90y-14" value="" style="rounded=1;whiteSpace=wrap;html=1;dashed=1;fillColor=none;" parent="8PD50v8X8vJW0gSdt90y-1" vertex="1">
          <mxGeometry x="410" y="60" width="150" height="170" as="geometry" />
        </mxCell>
        <mxCell id="8PD50v8X8vJW0gSdt90y-15" value="Protected API" style="shape=image;verticalLabelPosition=bottom;labelBackgroundColor=default;verticalAlign=top;aspect=fixed;imageAspect=0;image=data:image/svg+xml,PHN2ZyB4bWxucz0iaHR0cDovL3d3dy53My5vcmcvMjAwMC9zdmciIHZpZXdCb3g9IjAgMCA1MCA1MCI+JiN4YTsgICAgPHBhdGggZmlsbD0iIzU3YTMwMCIgZD0iTTAgMjAuODRoMTkuNTV2OC4zMkgweiIvPiYjeGE7ICAgIDxwYXRoIGZpbGw9IiM1OWI0ZDkiIGQ9Ik00MS42OCAyMC44NGgxMC4yNnY4LjMySDQxLjY4eiIvPiYjeGE7ICAgIDxjaXJjbGUgZmlsbD0iIzU3YTMwMCIgcj0iOS40NiIgY3k9IjI1IiBjeD0iMjAuMTIiLz4mI3hhOyAgICA8cGF0aCBmaWxsPSIjNTliNGQ5IiBkPSJNMjAuMTIuNDh2MTAuOTZhMSAxIDAgMCAxIDAgMjcuMTR2MTAuOTZhMSAxIDAgMCAwIDAtNDkuMDVaIi8+JiN4YTs8L3N2Zz4=;imageBackground=none;fontStyle=1" parent="8PD50v8X8vJW0gSdt90y-1" vertex="1">
          <mxGeometry x="460" y="140" width="50" height="50" as="geometry" />
        </mxCell>
        <mxCell id="8PD50v8X8vJW0gSdt90y-16" value="3. calls API&lt;div&gt;with Bearer token&lt;/div&gt;" style="rounded=0;orthogonalLoop=1;jettySize=auto;html=1;" parent="8PD50v8X8vJW0gSdt90y-1" source="8PD50v8X8vJW0gSdt90y-11" target="8PD50v8X8vJW0gSdt90y-15" edge="1">
          <mxGeometry x="-0.304" y="2" relative="1" as="geometry">
            <mxPoint x="510" y="290" as="targetPoint" />
            <mxPoint as="offset" />
            <mxPoint x="360" y="269.7297297297298" as="sourcePoint" />
          </mxGeometry>
        </mxCell>
        <mxCell id="8PD50v8X8vJW0gSdt90y-17" value="2. retrieves&amp;nbsp;&lt;div&gt;token using&lt;/div&gt;&lt;div&gt;managed&amp;nbsp;&lt;/div&gt;&lt;div&gt;identity for&lt;/div&gt;" style="rounded=0;orthogonalLoop=1;jettySize=auto;html=1;entryX=-0.016;entryY=0.492;entryDx=0;entryDy=0;entryPerimeter=0;" parent="8PD50v8X8vJW0gSdt90y-1" source="8PD50v8X8vJW0gSdt90y-11" target="8PD50v8X8vJW0gSdt90y-6" edge="1">
          <mxGeometry x="-0.2513" y="1" relative="1" as="geometry">
            <mxPoint x="360" y="320" as="sourcePoint" />
            <mxPoint as="offset" />
            <mxPoint x="460" y="396" as="targetPoint" />
          </mxGeometry>
        </mxCell>
        <mxCell id="8PD50v8X8vJW0gSdt90y-18" value="API Management" style="image;aspect=fixed;html=1;points=[];align=center;fontSize=12;image=img/lib/azure2/app_services/API_Management_Services.svg;imageBackground=default;" parent="8PD50v8X8vJW0gSdt90y-1" vertex="1">
          <mxGeometry x="452.5" y="30" width="65" height="60" as="geometry" />
        </mxCell>
        <mxCell id="8PD50v8X8vJW0gSdt90y-11" value="Azure Function" style="image;aspect=fixed;html=1;points=[];align=center;fontSize=12;image=img/lib/azure2/compute/Function_Apps.svg;fontStyle=1;labelBackgroundColor=default;imageBackground=default;" parent="8PD50v8X8vJW0gSdt90y-1" vertex="1">
          <mxGeometry x="220" y="135" width="68" height="60" as="geometry" />
        </mxCell>
      </root>
    </mxGraphModel>
  </diagram>
  <diagram name="overview-workflow" id="joq6U801V8TH7yMNdoxR">
    <mxGraphModel dx="1426" dy="841" grid="1" gridSize="10" guides="1" tooltips="1" connect="1" arrows="1" fold="1" page="1" pageScale="1" pageWidth="827" pageHeight="1169" math="0" shadow="0">
      <root>
        <mxCell id="3Ob4VKSCy7E2SWzim5_z-0" />
        <mxCell id="3Ob4VKSCy7E2SWzim5_z-1" parent="3Ob4VKSCy7E2SWzim5_z-0" />
        <mxCell id="3Ob4VKSCy7E2SWzim5_z-2" value="Client" style="verticalLabelPosition=bottom;html=1;verticalAlign=top;align=center;strokeColor=none;fillColor=#00BEF2;shape=mxgraph.azure.user;fontStyle=0;labelBackgroundColor=default;" parent="3Ob4VKSCy7E2SWzim5_z-1" vertex="1">
          <mxGeometry x="50" y="140" width="47.5" height="50" as="geometry" />
        </mxCell>
        <mxCell id="3Ob4VKSCy7E2SWzim5_z-3" value="" style="rounded=1;whiteSpace=wrap;html=1;dashed=1;" parent="3Ob4VKSCy7E2SWzim5_z-1" vertex="1">
          <mxGeometry x="385" y="320" width="200" height="260" as="geometry" />
        </mxCell>
        <mxCell id="3Ob4VKSCy7E2SWzim5_z-4" value="Microsoft Entra ID" style="image;aspect=fixed;html=1;points=[];align=center;fontSize=12;image=img/lib/azure2/other/Entra_Identity.svg;" parent="3Ob4VKSCy7E2SWzim5_z-1" vertex="1">
          <mxGeometry x="451" y="280" width="68" height="60.440000000000005" as="geometry" />
        </mxCell>
        <mxCell id="3Ob4VKSCy7E2SWzim5_z-5" value="&lt;div&gt;&lt;span style=&quot;background-color: transparent; color: light-dark(rgb(0, 0, 0), rgb(255, 255, 255));&quot;&gt;&amp;nbsp; &amp;nbsp; &amp;nbsp; &amp;nbsp;App roles:&lt;/span&gt;&lt;/div&gt;&lt;div&gt;&lt;ul&gt;&lt;li&gt;Sample.Read&lt;/li&gt;&lt;li&gt;Sample.Write&lt;/li&gt;&lt;li&gt;Sample.Delete&lt;/li&gt;&lt;/ul&gt;&lt;/div&gt;" style="rounded=1;whiteSpace=wrap;html=1;fillColor=#dae8fc;strokeColor=#6c8ebf;align=left;verticalAlign=bottom;" parent="3Ob4VKSCy7E2SWzim5_z-1" vertex="1">
          <mxGeometry x="405" y="400" width="160" height="160" as="geometry" />
        </mxCell>
        <mxCell id="3Ob4VKSCy7E2SWzim5_z-6" value="API Management&lt;div&gt;&lt;span style=&quot;font-weight: normal;&quot;&gt;(app registration)&lt;/span&gt;&lt;/div&gt;" style="image;sketch=0;aspect=fixed;html=1;points=[];align=center;fontSize=12;image=img/lib/mscae/App_Registrations.svg;fontStyle=1;labelBackgroundColor=none;" parent="3Ob4VKSCy7E2SWzim5_z-1" vertex="1">
          <mxGeometry x="460" y="375" width="50" height="50" as="geometry" />
        </mxCell>
        <mxCell id="3Ob4VKSCy7E2SWzim5_z-7" value="" style="shape=curlyBracket;whiteSpace=wrap;html=1;rounded=1;labelPosition=left;verticalLabelPosition=middle;align=right;verticalAlign=middle;" parent="3Ob4VKSCy7E2SWzim5_z-1" vertex="1">
          <mxGeometry x="415" y="505" width="14.5" height="25" as="geometry" />
        </mxCell>
        <mxCell id="3Ob4VKSCy7E2SWzim5_z-8" value="" style="shape=curlyBracket;whiteSpace=wrap;html=1;rounded=1;flipH=1;labelPosition=right;verticalLabelPosition=middle;align=left;verticalAlign=middle;" parent="3Ob4VKSCy7E2SWzim5_z-1" vertex="1">
          <mxGeometry x="525" y="502" width="15.5" height="44" as="geometry" />
        </mxCell>
        <mxCell id="3Ob4VKSCy7E2SWzim5_z-9" value="requires" style="edgeStyle=orthogonalEdgeStyle;rounded=0;orthogonalLoop=1;jettySize=auto;html=1;entryX=0.1;entryY=0.5;entryDx=0;entryDy=0;entryPerimeter=0;dashed=1;" parent="3Ob4VKSCy7E2SWzim5_z-1" source="3Ob4VKSCy7E2SWzim5_z-15" target="3Ob4VKSCy7E2SWzim5_z-8" edge="1">
          <mxGeometry x="-0.7168" y="15" relative="1" as="geometry">
            <Array as="points">
              <mxPoint x="660" y="165" />
              <mxPoint x="660" y="524" />
            </Array>
            <mxPoint as="offset" />
          </mxGeometry>
        </mxCell>
        <mxCell id="3Ob4VKSCy7E2SWzim5_z-10" value="has" style="edgeStyle=orthogonalEdgeStyle;rounded=0;orthogonalLoop=1;jettySize=auto;html=1;dashed=1;" parent="3Ob4VKSCy7E2SWzim5_z-1" source="yvBF6-putU5mNHR0nAHk-0" target="3Ob4VKSCy7E2SWzim5_z-19" edge="1">
          <mxGeometry relative="1" as="geometry">
            <mxPoint x="254" y="195" as="sourcePoint" />
          </mxGeometry>
        </mxCell>
        <mxCell id="3Ob4VKSCy7E2SWzim5_z-12" value="has roles&lt;div&gt;assigned&lt;/div&gt;" style="rounded=0;orthogonalLoop=1;jettySize=auto;html=1;dashed=1;labelBackgroundColor=default;entryX=0.1;entryY=0.5;entryDx=0;entryDy=0;entryPerimeter=0;edgeStyle=orthogonalEdgeStyle;" parent="3Ob4VKSCy7E2SWzim5_z-1" source="3Ob4VKSCy7E2SWzim5_z-19" target="3Ob4VKSCy7E2SWzim5_z-7" edge="1">
          <mxGeometry x="-0.4118" relative="1" as="geometry">
            <mxPoint as="offset" />
            <mxPoint x="300" y="520" as="sourcePoint" />
            <mxPoint x="521" y="689" as="targetPoint" />
            <Array as="points">
              <mxPoint x="254" y="518" />
              <mxPoint x="300" y="518" />
            </Array>
          </mxGeometry>
        </mxCell>
        <mxCell id="3Ob4VKSCy7E2SWzim5_z-13" value="1. calls resource&lt;div&gt;without authentication&lt;/div&gt;" style="edgeStyle=orthogonalEdgeStyle;rounded=0;orthogonalLoop=1;jettySize=auto;html=1;" parent="3Ob4VKSCy7E2SWzim5_z-1" source="3Ob4VKSCy7E2SWzim5_z-2" target="yvBF6-putU5mNHR0nAHk-0" edge="1">
          <mxGeometry x="-0.0566" y="20" relative="1" as="geometry">
            <mxPoint as="offset" />
            <mxPoint x="120" y="30" as="sourcePoint" />
            <mxPoint x="220" y="165" as="targetPoint" />
            <Array as="points" />
          </mxGeometry>
        </mxCell>
        <mxCell id="3Ob4VKSCy7E2SWzim5_z-14" value="" style="rounded=1;whiteSpace=wrap;html=1;dashed=1;fillColor=none;" parent="3Ob4VKSCy7E2SWzim5_z-1" vertex="1">
          <mxGeometry x="410" y="60" width="150" height="170" as="geometry" />
        </mxCell>
        <mxCell id="3Ob4VKSCy7E2SWzim5_z-15" value="Protected API" style="shape=image;verticalLabelPosition=bottom;labelBackgroundColor=default;verticalAlign=top;aspect=fixed;imageAspect=0;image=data:image/svg+xml,PHN2ZyB4bWxucz0iaHR0cDovL3d3dy53My5vcmcvMjAwMC9zdmciIHZpZXdCb3g9IjAgMCA1MCA1MCI+JiN4YTsgICAgPHBhdGggZmlsbD0iIzU3YTMwMCIgZD0iTTAgMjAuODRoMTkuNTV2OC4zMkgweiIvPiYjeGE7ICAgIDxwYXRoIGZpbGw9IiM1OWI0ZDkiIGQ9Ik00MS42OCAyMC44NGgxMC4yNnY4LjMySDQxLjY4eiIvPiYjeGE7ICAgIDxjaXJjbGUgZmlsbD0iIzU3YTMwMCIgcj0iOS40NiIgY3k9IjI1IiBjeD0iMjAuMTIiLz4mI3hhOyAgICA8cGF0aCBmaWxsPSIjNTliNGQ5IiBkPSJNMjAuMTIuNDh2MTAuOTZhMSAxIDAgMCAxIDAgMjcuMTR2MTAuOTZhMSAxIDAgMCAwIDAtNDkuMDVaIi8+JiN4YTs8L3N2Zz4=;imageBackground=none;fontStyle=1" parent="3Ob4VKSCy7E2SWzim5_z-1" vertex="1">
          <mxGeometry x="460" y="140" width="50" height="50" as="geometry" />
        </mxCell>
        <mxCell id="3Ob4VKSCy7E2SWzim5_z-16" value="3. calls API&lt;div&gt;with Bearer token&lt;/div&gt;" style="rounded=0;orthogonalLoop=1;jettySize=auto;html=1;" parent="3Ob4VKSCy7E2SWzim5_z-1" source="yvBF6-putU5mNHR0nAHk-0" target="3Ob4VKSCy7E2SWzim5_z-15" edge="1">
          <mxGeometry x="-0.304" y="2" relative="1" as="geometry">
            <mxPoint x="510" y="290" as="targetPoint" />
            <mxPoint as="offset" />
            <mxPoint x="288" y="165" as="sourcePoint" />
          </mxGeometry>
        </mxCell>
        <mxCell id="3Ob4VKSCy7E2SWzim5_z-17" value="2. retrieves&amp;nbsp;&lt;div&gt;token using&lt;/div&gt;&lt;div&gt;managed&amp;nbsp;&lt;/div&gt;&lt;div&gt;identity for&lt;/div&gt;" style="rounded=0;orthogonalLoop=1;jettySize=auto;html=1;" parent="3Ob4VKSCy7E2SWzim5_z-1" target="3Ob4VKSCy7E2SWzim5_z-5" edge="1">
          <mxGeometry x="-0.0713" y="-1" relative="1" as="geometry">
            <mxPoint x="276" y="195" as="sourcePoint" />
            <mxPoint as="offset" />
            <mxPoint x="500.37735849056594" y="560" as="targetPoint" />
          </mxGeometry>
        </mxCell>
        <mxCell id="3Ob4VKSCy7E2SWzim5_z-18" value="API Management" style="image;aspect=fixed;html=1;points=[];align=center;fontSize=12;image=img/lib/azure2/app_services/API_Management_Services.svg;imageBackground=default;" parent="3Ob4VKSCy7E2SWzim5_z-1" vertex="1">
          <mxGeometry x="452.5" y="30" width="65" height="60" as="geometry" />
        </mxCell>
        <mxCell id="3Ob4VKSCy7E2SWzim5_z-19" value="system-assigned&lt;div&gt;managed identity&lt;/div&gt;" style="image;sketch=0;aspect=fixed;html=1;points=[];align=center;fontSize=12;image=img/lib/mscae/Managed_Identities.svg;imageBackground=default;" parent="3Ob4VKSCy7E2SWzim5_z-1" vertex="1">
          <mxGeometry x="235" y="290.44" width="38" height="50" as="geometry" />
        </mxCell>
        <mxCell id="yvBF6-putU5mNHR0nAHk-0" value="Logic App&lt;div&gt;Workflow&lt;/div&gt;" style="image;aspect=fixed;html=1;points=[];align=center;fontSize=12;image=img/lib/azure2/internet_of_things/Logic_Apps.svg;fontStyle=1;labelBackgroundColor=default;imageBackground=default;" parent="3Ob4VKSCy7E2SWzim5_z-1" vertex="1">
          <mxGeometry x="224" y="135" width="60" height="60" as="geometry" />
        </mxCell>
      </root>
    </mxGraphModel>
  </diagram>
  <diagram name="overview-workflow-simplified" id="WYx_LHDsLHsBgdCEY5wH">
    <mxGraphModel dx="1426" dy="841" grid="1" gridSize="10" guides="1" tooltips="1" connect="1" arrows="1" fold="1" page="1" pageScale="1" pageWidth="827" pageHeight="1169" math="0" shadow="0">
      <root>
        <mxCell id="ESsdt9xR2p4GkEReNPl7-0" />
        <mxCell id="ESsdt9xR2p4GkEReNPl7-1" parent="ESsdt9xR2p4GkEReNPl7-0" />
        <mxCell id="ESsdt9xR2p4GkEReNPl7-2" value="Client" style="verticalLabelPosition=bottom;html=1;verticalAlign=top;align=center;strokeColor=none;fillColor=#00BEF2;shape=mxgraph.azure.user;fontStyle=0;labelBackgroundColor=default;" parent="ESsdt9xR2p4GkEReNPl7-1" vertex="1">
          <mxGeometry x="50" y="140" width="47.5" height="50" as="geometry" />
        </mxCell>
        <mxCell id="ESsdt9xR2p4GkEReNPl7-3" value="" style="rounded=1;whiteSpace=wrap;html=1;dashed=1;" parent="ESsdt9xR2p4GkEReNPl7-1" vertex="1">
          <mxGeometry x="410" y="290" width="150" height="160" as="geometry" />
        </mxCell>
        <mxCell id="ESsdt9xR2p4GkEReNPl7-4" value="Microsoft Entra ID" style="image;aspect=fixed;html=1;points=[];align=center;fontSize=12;image=img/lib/azure2/other/Entra_Identity.svg;" parent="ESsdt9xR2p4GkEReNPl7-1" vertex="1">
          <mxGeometry x="451" y="250" width="68" height="60.440000000000005" as="geometry" />
        </mxCell>
        <mxCell id="ESsdt9xR2p4GkEReNPl7-5" value="API Management&lt;div&gt;&lt;span style=&quot;font-weight: normal;&quot;&gt;(app registration)&lt;/span&gt;&lt;/div&gt;" style="image;sketch=0;aspect=fixed;html=1;points=[];align=center;fontSize=12;image=img/lib/mscae/App_Registrations.svg;fontStyle=1;labelBackgroundColor=none;" parent="ESsdt9xR2p4GkEReNPl7-1" vertex="1">
          <mxGeometry x="460" y="345" width="50" height="50" as="geometry" />
        </mxCell>
        <mxCell id="ESsdt9xR2p4GkEReNPl7-6" value="1. calls resource&lt;div&gt;without authentication&lt;/div&gt;" style="edgeStyle=orthogonalEdgeStyle;rounded=0;orthogonalLoop=1;jettySize=auto;html=1;" parent="ESsdt9xR2p4GkEReNPl7-1" source="ESsdt9xR2p4GkEReNPl7-2" target="o3uZ1qRlrGY8dIveaZm1-0" edge="1">
          <mxGeometry x="-0.0566" y="20" relative="1" as="geometry">
            <mxPoint as="offset" />
            <mxPoint x="120" y="30" as="sourcePoint" />
            <mxPoint x="220" y="165" as="targetPoint" />
            <Array as="points" />
          </mxGeometry>
        </mxCell>
        <mxCell id="ESsdt9xR2p4GkEReNPl7-7" value="" style="rounded=1;whiteSpace=wrap;html=1;dashed=1;fillColor=none;" parent="ESsdt9xR2p4GkEReNPl7-1" vertex="1">
          <mxGeometry x="410" y="60" width="150" height="170" as="geometry" />
        </mxCell>
        <mxCell id="ESsdt9xR2p4GkEReNPl7-8" value="Protected API" style="shape=image;verticalLabelPosition=bottom;labelBackgroundColor=default;verticalAlign=top;aspect=fixed;imageAspect=0;image=data:image/svg+xml,PHN2ZyB4bWxucz0iaHR0cDovL3d3dy53My5vcmcvMjAwMC9zdmciIHZpZXdCb3g9IjAgMCA1MCA1MCI+JiN4YTsgICAgPHBhdGggZmlsbD0iIzU3YTMwMCIgZD0iTTAgMjAuODRoMTkuNTV2OC4zMkgweiIvPiYjeGE7ICAgIDxwYXRoIGZpbGw9IiM1OWI0ZDkiIGQ9Ik00MS42OCAyMC44NGgxMC4yNnY4LjMySDQxLjY4eiIvPiYjeGE7ICAgIDxjaXJjbGUgZmlsbD0iIzU3YTMwMCIgcj0iOS40NiIgY3k9IjI1IiBjeD0iMjAuMTIiLz4mI3hhOyAgICA8cGF0aCBmaWxsPSIjNTliNGQ5IiBkPSJNMjAuMTIuNDh2MTAuOTZhMSAxIDAgMCAxIDAgMjcuMTR2MTAuOTZhMSAxIDAgMCAwIDAtNDkuMDVaIi8+JiN4YTs8L3N2Zz4=;imageBackground=none;fontStyle=1" parent="ESsdt9xR2p4GkEReNPl7-1" vertex="1">
          <mxGeometry x="460" y="140" width="50" height="50" as="geometry" />
        </mxCell>
        <mxCell id="ESsdt9xR2p4GkEReNPl7-9" value="3. calls API&lt;div&gt;with Bearer token&lt;/div&gt;" style="rounded=0;orthogonalLoop=1;jettySize=auto;html=1;" parent="ESsdt9xR2p4GkEReNPl7-1" source="o3uZ1qRlrGY8dIveaZm1-0" target="ESsdt9xR2p4GkEReNPl7-8" edge="1">
          <mxGeometry x="-0.304" y="2" relative="1" as="geometry">
            <mxPoint x="510" y="290" as="targetPoint" />
            <mxPoint as="offset" />
            <mxPoint x="288" y="165" as="sourcePoint" />
          </mxGeometry>
        </mxCell>
        <mxCell id="ESsdt9xR2p4GkEReNPl7-10" value="2. retrieves&amp;nbsp;&lt;div&gt;token using&lt;/div&gt;&lt;div&gt;managed&amp;nbsp;&lt;/div&gt;&lt;div&gt;identity for&lt;/div&gt;" style="rounded=0;orthogonalLoop=1;jettySize=auto;html=1;entryX=-0.016;entryY=0.492;entryDx=0;entryDy=0;entryPerimeter=0;" parent="ESsdt9xR2p4GkEReNPl7-1" source="o3uZ1qRlrGY8dIveaZm1-0" target="ESsdt9xR2p4GkEReNPl7-5" edge="1">
          <mxGeometry x="-0.2513" y="1" relative="1" as="geometry">
            <mxPoint x="284.08797653958936" y="195" as="sourcePoint" />
            <mxPoint as="offset" />
            <mxPoint x="460" y="396" as="targetPoint" />
          </mxGeometry>
        </mxCell>
        <mxCell id="ESsdt9xR2p4GkEReNPl7-11" value="API Management" style="image;aspect=fixed;html=1;points=[];align=center;fontSize=12;image=img/lib/azure2/app_services/API_Management_Services.svg;imageBackground=default;" parent="ESsdt9xR2p4GkEReNPl7-1" vertex="1">
          <mxGeometry x="452.5" y="30" width="65" height="60" as="geometry" />
        </mxCell>
        <mxCell id="o3uZ1qRlrGY8dIveaZm1-0" value="Logic App&lt;div&gt;Workflow&lt;/div&gt;" style="image;aspect=fixed;html=1;points=[];align=center;fontSize=12;image=img/lib/azure2/internet_of_things/Logic_Apps.svg;fontStyle=1;labelBackgroundColor=default;imageBackground=default;" parent="ESsdt9xR2p4GkEReNPl7-1" vertex="1">
          <mxGeometry x="220" y="135" width="60" height="60" as="geometry" />
        </mxCell>
      </root>
    </mxGraphModel>
  </diagram>
  <diagram name="overview-apim" id="2eEMQKw98m-4UjkHuxaF">
    <mxGraphModel dx="1188" dy="701" grid="1" gridSize="10" guides="1" tooltips="1" connect="1" arrows="1" fold="1" page="1" pageScale="1" pageWidth="827" pageHeight="1169" math="0" shadow="0">
      <root>
        <mxCell id="Qnx6v8jjU8re9YXd6goW-0" />
        <mxCell id="Qnx6v8jjU8re9YXd6goW-1" parent="Qnx6v8jjU8re9YXd6goW-0" />
        <mxCell id="Qnx6v8jjU8re9YXd6goW-2" value="Client" style="verticalLabelPosition=bottom;html=1;verticalAlign=top;align=center;strokeColor=none;fillColor=#00BEF2;shape=mxgraph.azure.user;fontStyle=0;labelBackgroundColor=default;" vertex="1" parent="Qnx6v8jjU8re9YXd6goW-1">
          <mxGeometry x="40" y="140" width="47.5" height="50" as="geometry" />
        </mxCell>
        <mxCell id="Qnx6v8jjU8re9YXd6goW-3" value="" style="rounded=1;whiteSpace=wrap;html=1;dashed=1;" vertex="1" parent="Qnx6v8jjU8re9YXd6goW-1">
          <mxGeometry x="385" y="320" width="200" height="260" as="geometry" />
        </mxCell>
        <mxCell id="Qnx6v8jjU8re9YXd6goW-4" value="Microsoft Entra ID" style="image;aspect=fixed;html=1;points=[];align=center;fontSize=12;image=img/lib/azure2/other/Entra_Identity.svg;" vertex="1" parent="Qnx6v8jjU8re9YXd6goW-1">
          <mxGeometry x="451" y="280" width="68" height="60.440000000000005" as="geometry" />
        </mxCell>
        <mxCell id="Qnx6v8jjU8re9YXd6goW-5" value="&lt;div&gt;&lt;span style=&quot;background-color: transparent; color: light-dark(rgb(0, 0, 0), rgb(255, 255, 255));&quot;&gt;&amp;nbsp; &amp;nbsp; &amp;nbsp; &amp;nbsp;App roles:&lt;/span&gt;&lt;/div&gt;&lt;div&gt;&lt;ul&gt;&lt;li&gt;Sample.Read&lt;/li&gt;&lt;li&gt;Sample.Write&lt;/li&gt;&lt;li&gt;Sample.Delete&lt;/li&gt;&lt;/ul&gt;&lt;/div&gt;" style="rounded=1;whiteSpace=wrap;html=1;fillColor=#dae8fc;strokeColor=#6c8ebf;align=left;verticalAlign=bottom;" vertex="1" parent="Qnx6v8jjU8re9YXd6goW-1">
          <mxGeometry x="405" y="400" width="160" height="160" as="geometry" />
        </mxCell>
        <mxCell id="Qnx6v8jjU8re9YXd6goW-6" value="API Management&lt;div&gt;&lt;span style=&quot;font-weight: normal;&quot;&gt;(app registration)&lt;/span&gt;&lt;/div&gt;" style="image;sketch=0;aspect=fixed;html=1;points=[];align=center;fontSize=12;image=img/lib/mscae/App_Registrations.svg;fontStyle=1;labelBackgroundColor=none;" vertex="1" parent="Qnx6v8jjU8re9YXd6goW-1">
          <mxGeometry x="460" y="375" width="50" height="50" as="geometry" />
        </mxCell>
        <mxCell id="Qnx6v8jjU8re9YXd6goW-7" value="" style="shape=curlyBracket;whiteSpace=wrap;html=1;rounded=1;labelPosition=left;verticalLabelPosition=middle;align=right;verticalAlign=middle;" vertex="1" parent="Qnx6v8jjU8re9YXd6goW-1">
          <mxGeometry x="415" y="505" width="14.5" height="25" as="geometry" />
        </mxCell>
        <mxCell id="Qnx6v8jjU8re9YXd6goW-8" value="" style="shape=curlyBracket;whiteSpace=wrap;html=1;rounded=1;flipH=1;labelPosition=right;verticalLabelPosition=middle;align=left;verticalAlign=middle;" vertex="1" parent="Qnx6v8jjU8re9YXd6goW-1">
          <mxGeometry x="525" y="502" width="15.5" height="44" as="geometry" />
        </mxCell>
        <mxCell id="Qnx6v8jjU8re9YXd6goW-9" value="requires" style="edgeStyle=orthogonalEdgeStyle;rounded=0;orthogonalLoop=1;jettySize=auto;html=1;entryX=0.1;entryY=0.5;entryDx=0;entryDy=0;entryPerimeter=0;dashed=1;" edge="1" parent="Qnx6v8jjU8re9YXd6goW-1" source="Qnx6v8jjU8re9YXd6goW-14" target="Qnx6v8jjU8re9YXd6goW-8">
          <mxGeometry x="-0.7168" y="15" relative="1" as="geometry">
            <Array as="points">
              <mxPoint x="660" y="165" />
              <mxPoint x="660" y="524" />
            </Array>
            <mxPoint as="offset" />
          </mxGeometry>
        </mxCell>
        <mxCell id="Qnx6v8jjU8re9YXd6goW-10" value="has" style="edgeStyle=orthogonalEdgeStyle;rounded=0;orthogonalLoop=1;jettySize=auto;html=1;dashed=1;exitX=0.174;exitY=1.002;exitDx=0;exitDy=0;exitPerimeter=0;" edge="1" parent="Qnx6v8jjU8re9YXd6goW-1" source="Qnx6v8jjU8re9YXd6goW-13" target="Qnx6v8jjU8re9YXd6goW-18">
          <mxGeometry relative="1" as="geometry">
            <mxPoint x="254" y="195" as="sourcePoint" />
          </mxGeometry>
        </mxCell>
        <mxCell id="Qnx6v8jjU8re9YXd6goW-11" value="has roles&lt;div&gt;assigned&lt;/div&gt;" style="rounded=0;orthogonalLoop=1;jettySize=auto;html=1;dashed=1;labelBackgroundColor=default;entryX=0.1;entryY=0.5;entryDx=0;entryDy=0;entryPerimeter=0;edgeStyle=orthogonalEdgeStyle;" edge="1" parent="Qnx6v8jjU8re9YXd6goW-1" source="Qnx6v8jjU8re9YXd6goW-18" target="Qnx6v8jjU8re9YXd6goW-7">
          <mxGeometry x="-0.4118" relative="1" as="geometry">
            <mxPoint as="offset" />
            <mxPoint x="300" y="520" as="sourcePoint" />
            <mxPoint x="521" y="689" as="targetPoint" />
            <Array as="points">
              <mxPoint x="279" y="518" />
              <mxPoint x="300" y="518" />
            </Array>
          </mxGeometry>
        </mxCell>
        <mxCell id="Qnx6v8jjU8re9YXd6goW-12" value="1. calls resource&lt;div&gt;without authentication&lt;/div&gt;" style="edgeStyle=orthogonalEdgeStyle;rounded=0;orthogonalLoop=1;jettySize=auto;html=1;" edge="1" parent="Qnx6v8jjU8re9YXd6goW-1" source="Qnx6v8jjU8re9YXd6goW-2" target="x8j2v5W8SAnfFSg8xbLn-0">
          <mxGeometry x="-0.3151" y="25" relative="1" as="geometry">
            <mxPoint as="offset" />
            <mxPoint x="62.5" y="165" as="sourcePoint" />
            <mxPoint x="224" y="165" as="targetPoint" />
            <Array as="points" />
          </mxGeometry>
        </mxCell>
        <mxCell id="Qnx6v8jjU8re9YXd6goW-13" value="" style="rounded=1;whiteSpace=wrap;html=1;dashed=1;fillColor=none;" vertex="1" parent="Qnx6v8jjU8re9YXd6goW-1">
          <mxGeometry x="215" y="80" width="370" height="150" as="geometry" />
        </mxCell>
        <mxCell id="Qnx6v8jjU8re9YXd6goW-14" value="Protected API" style="shape=image;verticalLabelPosition=bottom;labelBackgroundColor=default;verticalAlign=top;aspect=fixed;imageAspect=0;image=data:image/svg+xml,PHN2ZyB4bWxucz0iaHR0cDovL3d3dy53My5vcmcvMjAwMC9zdmciIHZpZXdCb3g9IjAgMCA1MCA1MCI+JiN4YTsgICAgPHBhdGggZmlsbD0iIzU3YTMwMCIgZD0iTTAgMjAuODRoMTkuNTV2OC4zMkgweiIvPiYjeGE7ICAgIDxwYXRoIGZpbGw9IiM1OWI0ZDkiIGQ9Ik00MS42OCAyMC44NGgxMC4yNnY4LjMySDQxLjY4eiIvPiYjeGE7ICAgIDxjaXJjbGUgZmlsbD0iIzU3YTMwMCIgcj0iOS40NiIgY3k9IjI1IiBjeD0iMjAuMTIiLz4mI3hhOyAgICA8cGF0aCBmaWxsPSIjNTliNGQ5IiBkPSJNMjAuMTIuNDh2MTAuOTZhMSAxIDAgMCAxIDAgMjcuMTR2MTAuOTZhMSAxIDAgMCAwIDAtNDkuMDVaIi8+JiN4YTs8L3N2Zz4=;imageBackground=none;fontStyle=1" vertex="1" parent="Qnx6v8jjU8re9YXd6goW-1">
          <mxGeometry x="485" y="140" width="50" height="50" as="geometry" />
        </mxCell>
        <mxCell id="Qnx6v8jjU8re9YXd6goW-15" value="3. calls API&lt;div&gt;with Bearer token&lt;/div&gt;" style="rounded=0;orthogonalLoop=1;jettySize=auto;html=1;" edge="1" parent="Qnx6v8jjU8re9YXd6goW-1" source="x8j2v5W8SAnfFSg8xbLn-0" target="Qnx6v8jjU8re9YXd6goW-14">
          <mxGeometry x="-0.304" y="2" relative="1" as="geometry">
            <mxPoint x="535" y="290" as="targetPoint" />
            <mxPoint as="offset" />
            <mxPoint x="309" y="165" as="sourcePoint" />
          </mxGeometry>
        </mxCell>
        <mxCell id="Qnx6v8jjU8re9YXd6goW-16" value="2. retrieves&amp;nbsp;&lt;div&gt;token using&lt;/div&gt;&lt;div&gt;managed&amp;nbsp;&lt;/div&gt;&lt;div&gt;identity for&lt;/div&gt;" style="rounded=0;orthogonalLoop=1;jettySize=auto;html=1;" edge="1" parent="Qnx6v8jjU8re9YXd6goW-1" target="Qnx6v8jjU8re9YXd6goW-5" source="x8j2v5W8SAnfFSg8xbLn-0">
          <mxGeometry x="-0.0713" y="-1" relative="1" as="geometry">
            <mxPoint x="276" y="195" as="sourcePoint" />
            <mxPoint as="offset" />
            <mxPoint x="500.37735849056594" y="560" as="targetPoint" />
          </mxGeometry>
        </mxCell>
        <mxCell id="Qnx6v8jjU8re9YXd6goW-17" value="API Management" style="image;aspect=fixed;html=1;points=[];align=center;fontSize=12;image=img/lib/azure2/app_services/API_Management_Services.svg;imageBackground=default;" vertex="1" parent="Qnx6v8jjU8re9YXd6goW-1">
          <mxGeometry x="367.5" y="50" width="65" height="60" as="geometry" />
        </mxCell>
        <mxCell id="Qnx6v8jjU8re9YXd6goW-18" value="system-assigned&lt;div&gt;managed identity&lt;/div&gt;" style="image;sketch=0;aspect=fixed;html=1;points=[];align=center;fontSize=12;image=img/lib/mscae/Managed_Identities.svg;imageBackground=default;" vertex="1" parent="Qnx6v8jjU8re9YXd6goW-1">
          <mxGeometry x="260" y="290.44" width="38" height="50" as="geometry" />
        </mxCell>
        <mxCell id="x8j2v5W8SAnfFSg8xbLn-0" value="Unprotected API" style="shape=image;verticalLabelPosition=bottom;labelBackgroundColor=default;verticalAlign=top;aspect=fixed;imageAspect=0;image=data:image/svg+xml,PHN2ZyB4bWxucz0iaHR0cDovL3d3dy53My5vcmcvMjAwMC9zdmciIHZpZXdCb3g9IjAgMCA1MCA1MCI+JiN4YTsgICAgPHBhdGggZmlsbD0iIzU3YTMwMCIgZD0iTTAgMjAuODRoMTkuNTV2OC4zMkgweiIvPiYjeGE7ICAgIDxwYXRoIGZpbGw9IiM1OWI0ZDkiIGQ9Ik00MS42OCAyMC44NGgxMC4yNnY4LjMySDQxLjY4eiIvPiYjeGE7ICAgIDxjaXJjbGUgZmlsbD0iIzU3YTMwMCIgcj0iOS40NiIgY3k9IjI1IiBjeD0iMjAuMTIiLz4mI3hhOyAgICA8cGF0aCBmaWxsPSIjNTliNGQ5IiBkPSJNMjAuMTIuNDh2MTAuOTZhMSAxIDAgMCAxIDAgMjcuMTR2MTAuOTZhMSAxIDAgMCAwIDAtNDkuMDVaIi8+JiN4YTs8L3N2Zz4=;imageBackground=none;fontStyle=1" vertex="1" parent="Qnx6v8jjU8re9YXd6goW-1">
          <mxGeometry x="270" y="140" width="50" height="50" as="geometry" />
        </mxCell>
      </root>
    </mxGraphModel>
  </diagram>
  <diagram name="overview-apim-simplified" id="imF_FeffB_TLCw4wTKXw">
    <mxGraphModel dx="983" dy="580" grid="1" gridSize="10" guides="1" tooltips="1" connect="1" arrows="1" fold="1" page="1" pageScale="1" pageWidth="827" pageHeight="1169" math="0" shadow="0">
      <root>
        <mxCell id="pdvlt_bsmkj-rL64lEBh-0" />
        <mxCell id="pdvlt_bsmkj-rL64lEBh-1" parent="pdvlt_bsmkj-rL64lEBh-0" />
        <mxCell id="pdvlt_bsmkj-rL64lEBh-2" value="Client" style="verticalLabelPosition=bottom;html=1;verticalAlign=top;align=center;strokeColor=none;fillColor=#00BEF2;shape=mxgraph.azure.user;fontStyle=0;labelBackgroundColor=default;" vertex="1" parent="pdvlt_bsmkj-rL64lEBh-1">
          <mxGeometry x="80" y="140" width="47.5" height="50" as="geometry" />
        </mxCell>
        <mxCell id="pdvlt_bsmkj-rL64lEBh-3" value="" style="rounded=1;whiteSpace=wrap;html=1;dashed=1;" vertex="1" parent="pdvlt_bsmkj-rL64lEBh-1">
          <mxGeometry x="460" y="290" width="150" height="160" as="geometry" />
        </mxCell>
        <mxCell id="pdvlt_bsmkj-rL64lEBh-4" value="Microsoft Entra ID" style="image;aspect=fixed;html=1;points=[];align=center;fontSize=12;image=img/lib/azure2/other/Entra_Identity.svg;" vertex="1" parent="pdvlt_bsmkj-rL64lEBh-1">
          <mxGeometry x="501" y="250" width="68" height="60.440000000000005" as="geometry" />
        </mxCell>
        <mxCell id="pdvlt_bsmkj-rL64lEBh-5" value="API Management&lt;div&gt;&lt;span style=&quot;font-weight: normal;&quot;&gt;(app registration)&lt;/span&gt;&lt;/div&gt;" style="image;sketch=0;aspect=fixed;html=1;points=[];align=center;fontSize=12;image=img/lib/mscae/App_Registrations.svg;fontStyle=1;labelBackgroundColor=none;" vertex="1" parent="pdvlt_bsmkj-rL64lEBh-1">
          <mxGeometry x="510" y="345" width="50" height="50" as="geometry" />
        </mxCell>
        <mxCell id="pdvlt_bsmkj-rL64lEBh-6" value="1. calls resource&lt;div&gt;without authentication&lt;/div&gt;" style="edgeStyle=orthogonalEdgeStyle;rounded=0;orthogonalLoop=1;jettySize=auto;html=1;" edge="1" parent="pdvlt_bsmkj-rL64lEBh-1" source="pdvlt_bsmkj-rL64lEBh-2" target="IrCIvDjr0LId6lAyLmx9-0">
          <mxGeometry x="-0.2754" y="25" relative="1" as="geometry">
            <mxPoint as="offset" />
            <mxPoint x="170" y="30" as="sourcePoint" />
            <mxPoint x="270" y="165" as="targetPoint" />
            <Array as="points" />
          </mxGeometry>
        </mxCell>
        <mxCell id="pdvlt_bsmkj-rL64lEBh-7" value="" style="rounded=1;whiteSpace=wrap;html=1;dashed=1;fillColor=none;" vertex="1" parent="pdvlt_bsmkj-rL64lEBh-1">
          <mxGeometry x="250" y="80" width="360" height="150" as="geometry" />
        </mxCell>
        <mxCell id="pdvlt_bsmkj-rL64lEBh-8" value="Protected API" style="shape=image;verticalLabelPosition=bottom;labelBackgroundColor=default;verticalAlign=top;aspect=fixed;imageAspect=0;image=data:image/svg+xml,PHN2ZyB4bWxucz0iaHR0cDovL3d3dy53My5vcmcvMjAwMC9zdmciIHZpZXdCb3g9IjAgMCA1MCA1MCI+JiN4YTsgICAgPHBhdGggZmlsbD0iIzU3YTMwMCIgZD0iTTAgMjAuODRoMTkuNTV2OC4zMkgweiIvPiYjeGE7ICAgIDxwYXRoIGZpbGw9IiM1OWI0ZDkiIGQ9Ik00MS42OCAyMC44NGgxMC4yNnY4LjMySDQxLjY4eiIvPiYjeGE7ICAgIDxjaXJjbGUgZmlsbD0iIzU3YTMwMCIgcj0iOS40NiIgY3k9IjI1IiBjeD0iMjAuMTIiLz4mI3hhOyAgICA8cGF0aCBmaWxsPSIjNTliNGQ5IiBkPSJNMjAuMTIuNDh2MTAuOTZhMSAxIDAgMCAxIDAgMjcuMTR2MTAuOTZhMSAxIDAgMCAwIDAtNDkuMDVaIi8+JiN4YTs8L3N2Zz4=;imageBackground=none;fontStyle=1" vertex="1" parent="pdvlt_bsmkj-rL64lEBh-1">
          <mxGeometry x="510" y="140" width="50" height="50" as="geometry" />
        </mxCell>
        <mxCell id="pdvlt_bsmkj-rL64lEBh-9" value="3. calls API&lt;div&gt;with Bearer token&lt;/div&gt;" style="rounded=0;orthogonalLoop=1;jettySize=auto;html=1;" edge="1" parent="pdvlt_bsmkj-rL64lEBh-1" source="IrCIvDjr0LId6lAyLmx9-0" target="pdvlt_bsmkj-rL64lEBh-8">
          <mxGeometry x="-0.304" y="2" relative="1" as="geometry">
            <mxPoint x="560" y="290" as="targetPoint" />
            <mxPoint as="offset" />
            <mxPoint x="330" y="165" as="sourcePoint" />
          </mxGeometry>
        </mxCell>
        <mxCell id="pdvlt_bsmkj-rL64lEBh-10" value="2. retrieves&amp;nbsp;&lt;div&gt;token using&lt;/div&gt;&lt;div&gt;managed&amp;nbsp;&lt;/div&gt;&lt;div&gt;identity for&lt;/div&gt;" style="rounded=0;orthogonalLoop=1;jettySize=auto;html=1;entryX=-0.016;entryY=0.492;entryDx=0;entryDy=0;entryPerimeter=0;" edge="1" parent="pdvlt_bsmkj-rL64lEBh-1" source="IrCIvDjr0LId6lAyLmx9-0" target="pdvlt_bsmkj-rL64lEBh-5">
          <mxGeometry x="-0.1351" y="-3" relative="1" as="geometry">
            <mxPoint x="330" y="194.34034416826012" as="sourcePoint" />
            <mxPoint as="offset" />
            <mxPoint x="510" y="396" as="targetPoint" />
          </mxGeometry>
        </mxCell>
        <mxCell id="pdvlt_bsmkj-rL64lEBh-11" value="API Management" style="image;aspect=fixed;html=1;points=[];align=center;fontSize=12;image=img/lib/azure2/app_services/API_Management_Services.svg;imageBackground=default;" vertex="1" parent="pdvlt_bsmkj-rL64lEBh-1">
          <mxGeometry x="397.5" y="50" width="65" height="60" as="geometry" />
        </mxCell>
        <mxCell id="IrCIvDjr0LId6lAyLmx9-0" value="Unprotected API" style="shape=image;verticalLabelPosition=bottom;labelBackgroundColor=default;verticalAlign=top;aspect=fixed;imageAspect=0;image=data:image/svg+xml,PHN2ZyB4bWxucz0iaHR0cDovL3d3dy53My5vcmcvMjAwMC9zdmciIHZpZXdCb3g9IjAgMCA1MCA1MCI+JiN4YTsgICAgPHBhdGggZmlsbD0iIzU3YTMwMCIgZD0iTTAgMjAuODRoMTkuNTV2OC4zMkgweiIvPiYjeGE7ICAgIDxwYXRoIGZpbGw9IiM1OWI0ZDkiIGQ9Ik00MS42OCAyMC44NGgxMC4yNnY4LjMySDQxLjY4eiIvPiYjeGE7ICAgIDxjaXJjbGUgZmlsbD0iIzU3YTMwMCIgcj0iOS40NiIgY3k9IjI1IiBjeD0iMjAuMTIiLz4mI3hhOyAgICA8cGF0aCBmaWxsPSIjNTliNGQ5IiBkPSJNMjAuMTIuNDh2MTAuOTZhMSAxIDAgMCAxIDAgMjcuMTR2MTAuOTZhMSAxIDAgMCAwIDAtNDkuMDVaIi8+JiN4YTs8L3N2Zz4=;imageBackground=none;fontStyle=1" vertex="1" parent="pdvlt_bsmkj-rL64lEBh-1">
          <mxGeometry x="300" y="140" width="50" height="50" as="geometry" />
        </mxCell>
      </root>
    </mxGraphModel>
  </diagram>
</mxfile>
